<svg xmlns="http://www.w3.org/2000/svg" width="19.896" height="21.57" viewBox="0 0 19.896 21.57">
  <path id="cta-tel" d="M72.039,73.408A5.721,5.721,0,0,1,67.82,75.77c-.225-.056-.45-.084-.675-.141a8.169,8.169,0,0,1-1.434-.366,22.445,22.445,0,0,1-8.493-5.906,21.392,21.392,0,0,1-4.584-9.168,4.744,4.744,0,0,1,2.531-5.653,1.989,1.989,0,0,1,1.041-.337.779.779,0,0,1,.253.028,1.359,1.359,0,0,1,.844.872c.591,1.181,1.069,2.419,1.434,3.375.281.787.084,1.041-.675,1.35s-1.294.506-1.462,1.1c-.2.591.084,1.069.478,1.715a29.121,29.121,0,0,0,7.171,8.24,1.591,1.591,0,0,0,1.406.422,1.831,1.831,0,0,0,1.153-.956c.281-.506.562-.816.759-.872a1.819,1.819,0,0,1,1.1.337c1.069.619,2.081,1.294,3.15,2.025a1.107,1.107,0,0,1,.534.759A1.734,1.734,0,0,1,72.039,73.408Z" transform="translate(-52.451 -54.2)" fill="#fff"/>
</svg>
