<svg xmlns="http://www.w3.org/2000/svg" width="51.962" height="64.98" viewBox="0 0 51.962 64.98">
  <g id="flow-1" transform="translate(-15.5 -0.888)">
    <path id="Trazado_245" data-name="Trazado 245" d="M27.96,78.887H17.583v-37.3H34.468a1.041,1.041,0,0,0,0-2.083H16.541A1.064,1.064,0,0,0,15.5,40.541V79.928a1.064,1.064,0,0,0,1.041,1.041H27.96A1.064,1.064,0,0,0,29,79.928,1.04,1.04,0,0,0,27.96,78.887Z" transform="translate(0 -24.251)" fill="#0a4273"/>
    <path id="Trazado_246" data-name="Trazado 246" d="M89.883,91.574V86.441a1.041,1.041,0,1,0-2.083,0v5.133a1.064,1.064,0,0,0,1.041,1.041A1.04,1.04,0,0,0,89.883,91.574Z" transform="translate(-45.41 -53.08)" fill="#0a4273"/>
    <path id="Trazado_247" data-name="Trazado 247" d="M32.341,60.383h4.8a1.041,1.041,0,0,0,0-2.083h-4.8a1.041,1.041,0,0,0,0,2.083Z" transform="translate(-9.924 -36.059)" fill="#0a4273"/>
    <path id="Trazado_248" data-name="Trazado 248" d="M47.442,72.2h-15.1a1.041,1.041,0,0,0,0,2.083h15.1a1.064,1.064,0,0,0,1.041-1.041A1.04,1.04,0,0,0,47.442,72.2Z" transform="translate(-9.924 -44.789)" fill="#0a4273"/>
    <path id="Trazado_249" data-name="Trazado 249" d="M47.442,86.1h-15.1a1.041,1.041,0,1,0,0,2.083h15.1a1.064,1.064,0,0,0,1.041-1.041A1.017,1.017,0,0,0,47.442,86.1Z" transform="translate(-9.924 -53.519)" fill="#0a4273"/>
    <path id="Trazado_250" data-name="Trazado 250" d="M47.442,99.9h-15.1a1.041,1.041,0,1,0,0,2.083h15.1a1.064,1.064,0,0,0,1.041-1.041A1.04,1.04,0,0,0,47.442,99.9Z" transform="translate(-9.924 -62.187)" fill="#0a4273"/>
    <path id="Trazado_251" data-name="Trazado 251" d="M37.883,115.883a1.041,1.041,0,1,0,0-2.083H32.341a1.064,1.064,0,0,0-1.041,1.041v5.17a1.064,1.064,0,0,0,1.041,1.041h5.542a1.041,1.041,0,0,0,0-2.083h-4.5v-3.05h4.5Z" transform="translate(-9.924 -70.917)" fill="#0a4273"/>
    <path id="Trazado_252" data-name="Trazado 252" d="M90.246,107h-31.2A1.064,1.064,0,0,0,58,108.041v23.431a1.064,1.064,0,0,0,1.041,1.041h31.2a1.064,1.064,0,0,0,1.041-1.041V108.041A1.04,1.04,0,0,0,90.246,107Zm-30.163,6.62,9.41,5.839-9.41,9.41V113.62Zm1.339,16.848,9.856-9.856,2.938,1.822a1.12,1.12,0,0,0,1.116,0l2.641-1.636,9.93,9.707H61.422ZM89.2,128.795l-9.373-9.149,9.373-5.8Zm0-17.443-14.431,8.926-14.691-9.112V109.12H89.2Z" transform="translate(-26.693 -66.646)" fill="#0a4273"/>
    <path id="Trazado_253" data-name="Trazado 253" d="M121.516,2.864a12.838,12.838,0,0,1,5.988,7.885,12.8,12.8,0,0,1-1.19,9.707,1.031,1.031,0,0,0,.409,1.413,1.145,1.145,0,0,0,.484.112,1.023,1.023,0,0,0,.93-.558,14.723,14.723,0,0,0,1.376-11.269,14.88,14.88,0,0,0-6.918-9.112,1.079,1.079,0,0,0-1.451.335A1.075,1.075,0,0,0,121.516,2.864Z" transform="translate(-66.257)" fill="#0a4273"/>
    <path id="Trazado_254" data-name="Trazado 254" d="M115.748,12.792a8.938,8.938,0,0,1,4.091,5.467,8.681,8.681,0,0,1-.818,6.4,1,1,0,0,0,.409,1.413,1.211,1.211,0,0,0,.521.149,1,1,0,0,0,.893-.521,10.948,10.948,0,0,0-4.017-14.654,1,1,0,0,0-1.413.372A.961.961,0,0,0,115.748,12.792Z" transform="translate(-62.646 -6.283)" fill="#0a4273"/>
    <path id="Trazado_255" data-name="Trazado 255" d="M110.008,22.527c2.306,1.711,2.864,3.719,1.711,6.323a1.036,1.036,0,0,0,.558,1.376.8.8,0,0,0,.409.074,1.044,1.044,0,0,0,.967-.632c1.525-3.5.669-6.546-2.38-8.815a1.049,1.049,0,0,0-1.265,1.674Z" transform="translate(-59.1 -12.41)" fill="#0a4273"/>
    <path id="Trazado_256" data-name="Trazado 256" d="M105.805,43.136a3.641,3.641,0,0,0-1.525-2.343c-1.376-.967-2.715-1.9-4.128-2.715a3.973,3.973,0,0,0-2.975-.632,3.92,3.92,0,0,0-2.232,2.12c0,.037-.037.037-.037.074l-.037-.037a35.3,35.3,0,0,1-8.554-10.042,4.057,4.057,0,0,1-.223-.409c.149-.074.335-.149.521-.223,2.566-1.079,2.529-2.975,2.008-4.389-.484-1.265-1.116-2.975-1.9-4.575a3.8,3.8,0,0,0-2.38-2.194,4.072,4.072,0,0,0-3.31.6,9.087,9.087,0,0,0-3.756,4.054,8.342,8.342,0,0,0-.372,5.5c2.306,9.856,8.257,16.885,17.7,20.9a12.553,12.553,0,0,0,2.232.632c.335.074.632.112.93.186a.633.633,0,0,0,.26.037h.074a9.294,9.294,0,0,0,6.992-3.868A3.6,3.6,0,0,0,105.805,43.136Zm-2.38,1.413a7.164,7.164,0,0,1-5.319,3.05c-.3-.074-.558-.112-.855-.186a10.763,10.763,0,0,1-1.822-.484,28.31,28.31,0,0,1-10.711-7.625,27.756,27.756,0,0,1-5.765-11.827c-.744-3.124.335-5.579,3.2-7.29a2.479,2.479,0,0,1,1.3-.446,1.03,1.03,0,0,1,.335.037,1.865,1.865,0,0,1,1.079,1.116c.744,1.525,1.339,3.124,1.822,4.352.372,1,.112,1.339-.855,1.748s-1.636.669-1.86,1.413c-.26.744.112,1.376.6,2.194a37.7,37.7,0,0,0,9.038,10.637,2.058,2.058,0,0,0,1.785.558,2.322,2.322,0,0,0,1.451-1.227c.372-.669.707-1.041.967-1.116a2.172,2.172,0,0,1,1.376.446c1.339.781,2.641,1.674,3.98,2.6a1.42,1.42,0,0,1,.669.967A2.294,2.294,0,0,1,103.425,44.549Z" transform="translate(-38.384 -10.518)" fill="#0a4273"/>
  </g>
</svg>
