<svg xmlns="http://www.w3.org/2000/svg" width="64.996" height="53.906" viewBox="0 0 64.996 53.906">
  <g id="flow-9" transform="translate(-1 -18.096)">
    <path id="Trazado_380" data-name="Trazado 380" d="M21.359,46.4c.274.392,2.117,2.666,4.979,5.8a1.2,1.2,0,0,0,.823.353,1.245,1.245,0,0,0,.784-.314,1.126,1.126,0,0,0,.078-1.607c-2.9-3.175-4.665-5.371-4.783-5.567C9.717,26.33,10.579,21.783,11.167,20.842c.47-.745,2.313-.627,4.9.314a1.129,1.129,0,1,0,.784-2.117c-3.92-1.45-6.468-1.215-7.605.627-.549.9-1.137,2.509.2,6.39C11.01,30.76,15.048,37.62,21.359,46.4Z" transform="translate(-4.64 0)" fill="#0a4273"/>
    <path id="Trazado_381" data-name="Trazado 381" d="M23.149,90.682a3.026,3.026,0,0,1-.588-.078c0-.039-.039-.039-.039-.078a40.279,40.279,0,0,1-4.939-8.272h5.449a1.138,1.138,0,0,0,1.137-1.137,1.643,1.643,0,0,0-.157-.588,1.121,1.121,0,0,0-.98-.549h-6.39a28.829,28.829,0,0,1-1.882-9.565v-.078c-.784-1.058-1.49-2.117-2.2-3.136a2.967,2.967,0,0,1-.039.588H3.313A21.894,21.894,0,0,1,6.292,57.87a.727.727,0,0,0,.274.078c-.51-.862-.98-1.725-1.411-2.548a24.127,24.127,0,0,0,17.8,37.555h.118a1.117,1.117,0,0,0,1.137-1.019A1.2,1.2,0,0,0,23.149,90.682ZM6.292,80.019A22,22,0,0,1,3.313,70.1h9.173v.392a30.687,30.687,0,0,0,1.725,9.526ZM9.036,83.7c-.431-.47-.823-.941-1.215-1.411h7.213a44.932,44.932,0,0,0,4.155,7.684A22.084,22.084,0,0,1,9.036,83.7Z" transform="translate(0 -22.68)" fill="#0a4273"/>
    <path id="Trazado_382" data-name="Trazado 382" d="M49.179,42.883a1.129,1.129,0,0,0,1.1.823.863.863,0,0,0,.314-.039,1.152,1.152,0,0,0,.784-1.411l-.235-.823h7.252A11.945,11.945,0,0,1,59.215,43a1.149,1.149,0,0,0,2.078-.98A24.288,24.288,0,0,0,52.551,32.1a23.88,23.88,0,0,0-12.937-3.8h-.078A23.993,23.993,0,0,0,24.6,33.514c.274.627.588,1.333.98,2.117a22.281,22.281,0,0,1,8.154-4.273,21.941,21.941,0,0,0-4.626,7.8h-1.49c.745,1.215,1.646,2.587,2.627,4.077.157-.627.314-1.215.47-1.8h7.723v1.137a1.137,1.137,0,1,0,2.274,0V41.433h8.036C48.905,41.942,49.023,42.413,49.179,42.883ZM38.438,39.2H31.5a18.2,18.2,0,0,1,6.39-8.428l.118-.118a1.608,1.608,0,0,0,.431-.039Zm12.819-5.135A21.738,21.738,0,0,1,56.824,39.2H50.356q-.588-1.529-1.294-3.058A20.63,20.63,0,0,0,45.338,31.4,22.321,22.321,0,0,1,51.257,34.063ZM40.712,39.2V30.652a1.47,1.47,0,0,1,.431.039c.274.235,1.294,1.1,2.431,2.234a18.681,18.681,0,0,1,3.411,4.234c.314.666.627,1.333.9,2.038Z" transform="translate(-14.348 -6.204)" fill="#0a4273"/>
    <path id="Trazado_383" data-name="Trazado 383" d="M55.9,88.137A1.138,1.138,0,0,0,54.768,87H53.2c.235.314.431.627.666.941.078.118.51.588,1.176,1.294A1.1,1.1,0,0,0,55.9,88.137Z" transform="translate(-31.737 -41.892)" fill="#0a4273"/>
    <path id="Trazado_384" data-name="Trazado 384" d="M104.743,72.1H67.737A1.138,1.138,0,0,0,66.6,73.237V99.384a1.138,1.138,0,0,0,1.137,1.137H82.908v2.038H79.341c-.549,0-.98.666-.98,1.529,0,.823.431.745.98.745h13.8c.549,0,.98.078.98-.745s-.431-1.529-.98-1.529H89.572v-2.038h15.171a1.138,1.138,0,0,0,1.137-1.137V73.237A1.138,1.138,0,0,0,104.743,72.1ZM87.3,102.56H85.182v-1.882H87.3Zm16.308-4.312H68.874V95.582h34.733Zm0-4.979H68.874v-18.9h34.733Z" transform="translate(-39.884 -32.833)" fill="#0a4273"/>
  </g>
</svg>
