<svg xmlns="http://www.w3.org/2000/svg" width="65" height="51.9" viewBox="0 0 65 51.9">
  <g id="flow-5" transform="translate(-0.3 -18.9)">
    <path id="Trazado_296" data-name="Trazado 296" d="M22.1,45.9a.7.7,0,0,0,0,1.391H34.616a.7.7,0,0,0,0-1.391Z" transform="translate(-12.946 -16.566)" fill="#0a4273"/>
    <path id="Trazado_297" data-name="Trazado 297" d="M48.346,112.5H26.4a.7.7,0,1,0,0,1.391h21.95a.693.693,0,0,0,.7-.7A.718.718,0,0,0,48.346,112.5Z" transform="translate(-15.584 -57.429)" fill="#0a4273"/>
    <path id="Trazado_298" data-name="Trazado 298" d="M49.041,121.7a.693.693,0,0,0-.7-.7H26.4a.7.7,0,0,0,0,1.391h21.95A.693.693,0,0,0,49.041,121.7Z" transform="translate(-15.584 -62.644)" fill="#0a4273"/>
    <path id="Trazado_299" data-name="Trazado 299" d="M26.4,129.4a.7.7,0,1,0,0,1.391H36.714a.7.7,0,1,0,0-1.391Z" transform="translate(-15.584 -67.798)" fill="#0a4273"/>
    <path id="Trazado_300" data-name="Trazado 300" d="M117.833,100.8a.693.693,0,0,0-.7-.7H101.8a.7.7,0,0,0,0,1.391h15.342A.693.693,0,0,0,117.833,100.8Z" transform="translate(-61.846 -49.821)" fill="#0a4273"/>
    <path id="Trazado_301" data-name="Trazado 301" d="M113.041,109.2a.693.693,0,0,0-.7-.7H101.8a.7.7,0,0,0,0,1.391h10.55A.718.718,0,0,0,113.041,109.2Z" transform="translate(-61.846 -54.975)" fill="#0a4273"/>
    <path id="Trazado_302" data-name="Trazado 302" d="M101.7,118.291H104.4a.7.7,0,0,0,0-1.391H101.7a.7.7,0,0,0,0,1.391Z" transform="translate(-61.785 -60.128)" fill="#0a4273"/>
    <path id="Trazado_303" data-name="Trazado 303" d="M128.4,116.9a.7.7,0,0,0,0,1.391H131.1a.7.7,0,1,0,0-1.391Z" transform="translate(-78.167 -60.128)" fill="#0a4273"/>
    <path id="Trazado_304" data-name="Trazado 304" d="M76.9,45.9a.7.7,0,1,0,0,1.391h5.951a.7.7,0,0,0,0-1.391Z" transform="translate(-46.569 -16.566)" fill="#0a4273"/>
    <path id="Trazado_305" data-name="Trazado 305" d="M101.5,45.9a.7.7,0,1,0,0,1.391h5.951a.7.7,0,1,0,0-1.391Z" transform="translate(-61.662 -16.566)" fill="#0a4273"/>
    <path id="Trazado_306" data-name="Trazado 306" d="M126.1,45.9a.7.7,0,0,0,0,1.391h5.951a.7.7,0,1,0,0-1.391Z" transform="translate(-76.756 -16.566)" fill="#0a4273"/>
    <path id="Trazado_307" data-name="Trazado 307" d="M49.08,64.3a.693.693,0,0,0-.7-.7H26.4a.693.693,0,0,0-.7.7V79.637a.693.693,0,0,0,.7.7h21.95a.693.693,0,0,0,.7-.7V64.3ZM35.9,73.068a.735.735,0,0,0-1-.193l-7.806,5.294V65.8l19.09,13.139H28.521l7.188-4.869A.7.7,0,0,0,35.9,73.068Zm-7.458-8.077H46.529l-7.5,5.1a.717.717,0,0,0,.386,1.314.653.653,0,0,0,.386-.116L47.611,66V78.208Z" transform="translate(-15.584 -27.426)" fill="#0a4273"/>
    <path id="Trazado_308" data-name="Trazado 308" d="M117.91,64.5a.693.693,0,0,0-.7-.7H101.8a.693.693,0,0,0-.7.7V74.93a.693.693,0,0,0,.7.7h15.419a.693.693,0,0,0,.7-.7Zm-9.893,6.26a.7.7,0,0,0-.966-.193l-4.56,2.976V66.2l12.559,8.077H103.96l3.826-2.512A.76.76,0,0,0,108.017,70.756Zm-4.367-5.526h11.516l-4.212,2.744a.7.7,0,0,0-.193.966.734.734,0,0,0,.58.309.746.746,0,0,0,.386-.116l4.753-3.092v7.42Z" transform="translate(-61.846 -27.549)" fill="#0a4273"/>
    <path id="Trazado_309" data-name="Trazado 309" d="M107.631,126.8a.693.693,0,0,0-.7-.7H101.8a.693.693,0,0,0-.7.7v2.319a.7.7,0,1,0,1.391,0v-.7l1.275.812a.746.746,0,0,0,.386.116.681.681,0,0,0,.58-.309.716.716,0,0,0-.193-.966l-.85-.541h3.246A.727.727,0,0,0,107.631,126.8Z" transform="translate(-61.846 -65.773)" fill="#0a4273"/>
    <path id="Trazado_310" data-name="Trazado 310" d="M64.566,18.9H1a.693.693,0,0,0-.7.7V65.312a.693.693,0,0,0,.7.7H47.06a.7.7,0,0,0,0-1.391H6.676l.077-30.722H55.291a.7.7,0,0,0,0-1.391H6.754V28.1h52.17V60.675a.7.7,0,0,0,1.391,0V27.363a.693.693,0,0,0-.7-.7H6.058a.693.693,0,0,0-.7.7L5.285,64.655H1.691v-39.3H63.87v39.3H58.421a.7.7,0,1,0,0,1.391H64.6a.693.693,0,0,0,.7-.7V19.634A.734.734,0,0,0,64.566,18.9ZM1.691,23.924V20.33H63.87v3.594Z" transform="translate(0)" fill="#0a4273"/>
    <circle id="Elipse_32" data-name="Elipse 32" cx="1.275" cy="1.275" r="1.275" transform="translate(2.735 20.871)" fill="#0a4273"/>
    <circle id="Elipse_33" data-name="Elipse 33" cx="1.275" cy="1.275" r="1.275" transform="translate(6.251 20.871)" fill="#0a4273"/>
    <circle id="Elipse_34" data-name="Elipse 34" cx="1.275" cy="1.275" r="1.275" transform="translate(9.729 20.871)" fill="#0a4273"/>
    <path id="Trazado_311" data-name="Trazado 311" d="M127.822,125.756l4.6-1.855L119.9,118.8l5.1,12.521,1.855-4.6,5.178,5.178a.64.64,0,0,0,.5.193.814.814,0,0,0,.5-.193.723.723,0,0,0,0-1Z" transform="translate(-73.381 -61.294)" fill="#0a4273"/>
  </g>
</svg>
