<svg xmlns="http://www.w3.org/2000/svg" width="65.004" height="50.589" viewBox="0 0 65.004 50.589">
  <g id="flow-10" transform="translate(-1.6 -22.3)">
    <path id="Trazado_385" data-name="Trazado 385" d="M31.572,63.61a.977.977,0,0,0,.469-1.173l-.508-1.407a.959.959,0,0,0-1.094-.625l-1.134.235c-.078-.078-.156-.2-.235-.274l.352-1.094a.981.981,0,0,0-.508-1.173l-1.368-.625a.988.988,0,0,0-1.212.352l-.625.977h-.352l-.547-1.016a.977.977,0,0,0-1.173-.469l-1.446.547a.959.959,0,0,0-.625,1.094l.235,1.134c-.078.078-.2.156-.274.235l-1.094-.352a.981.981,0,0,0-1.173.508l-.547,1.368a.988.988,0,0,0,.352,1.212l.977.625v.352l-1.055.547a.977.977,0,0,0-.469,1.173l.508,1.407a.959.959,0,0,0,1.094.625l1.134-.235c.078.078.156.2.235.274l-.313,1.055a.981.981,0,0,0,.508,1.173l1.368.625a.988.988,0,0,0,1.212-.352l.625-.977h.352l.547,1.016a.971.971,0,0,0,.86.508.762.762,0,0,0,.313-.039l1.407-.508a.959.959,0,0,0,.625-1.094L28.718,68.1c.078-.078.2-.156.274-.235l1.094.352a.981.981,0,0,0,1.173-.508l.625-1.368a.988.988,0,0,0-.352-1.212l-.977-.625v-.352Zm-6.293,1.642a1.173,1.173,0,1,1,1.173-1.173A1.152,1.152,0,0,1,25.279,65.251Z" transform="translate(-10.272 -21.297)" fill="#0a4273"/>
    <path id="Trazado_386" data-name="Trazado 386" d="M95.2,91.877h16.807v5.238h-16.3c.117.547.235,1.094.352,1.681,0,.078.039.2.039.274h16.807a.968.968,0,0,0,.977-.977V84.529a10.5,10.5,0,0,0-1.915-1.329v6.762H95.552A15.071,15.071,0,0,0,95.2,91.877Z" transform="translate(-57.015 -37.096)" fill="#0a4273"/>
    <path id="Trazado_387" data-name="Trazado 387" d="M39.436,65.569a1.321,1.321,0,0,1-.235.469,3.577,3.577,0,0,1-2.5,1.485c-.156.039-.274.078-.43.117-.235.039-.43.117-.625.156a2.768,2.768,0,0,1-2.228-.235,2.814,2.814,0,0,1-1.329-1.876c-.2-.7-.391-1.993-.625-3.479v3.283H27.045V62.129h4.417a7.825,7.825,0,0,0-.156-.938c-.078-.43-.117-.821-.2-1.212H3.554V54.742H32.009c.078-.039.117-.078.2-.117,0-.117.039-.2.039-.313a10.714,10.714,0,0,0,.2-1.094c.039-.117.039-.274.078-.391H3.554V24.215H54.992v15.6c.078.039.156.039.2.078a13.222,13.222,0,0,1,1.72.7V23.277a.968.968,0,0,0-.977-.977H2.577a.968.968,0,0,0-.977.977V61a.968.968,0,0,0,.977.977H25.13v3.6H19.306c-.782,0-1.407.977-1.407,2.189s.625,1.094,1.407,1.094H39.2c.782,0,1.407.117,1.407-1.094C40.608,66.624,40.1,65.725,39.436,65.569Z" transform="translate(0 0)" fill="#0a4273"/>
    <path id="Trazado_388" data-name="Trazado 388" d="M78,124.3h0v0Z" transform="translate(-46.538 -62.132)" fill="#0a4273"/>
    <path id="Trazado_389" data-name="Trazado 389" d="M73,43.434l-6.8-5.081.43-2.853a2.157,2.157,0,0,0-.821-1.993l-6.41-4.847a2.228,2.228,0,0,0-2.15-.235L54.116,29.91a.966.966,0,0,0-.547.782.917.917,0,0,0,.391.86l3.479,2.619-.43,2.189-1.993,1.016-3.479-2.619a1,1,0,0,0-.938-.117.951.951,0,0,0-.586.743l-.547,3.44a2.194,2.194,0,0,0,.821,1.993l6.449,4.847a2.228,2.228,0,0,0,2.15.235L61.5,44.646l4.378,3.283c.43-.469.938-.938,1.407-1.368l-5.12-3.83a1.084,1.084,0,0,0-.977-.117L58.064,44.1c-.039,0-.156,0-.2-.039l-6.41-4.769a.3.3,0,0,1-.078-.2l.274-1.837,2.7,1.993a.888.888,0,0,0,1.016.078L58.3,37.845a.882.882,0,0,0,.508-.664l.625-3.244A.943.943,0,0,0,59.08,33L56.383,31l1.681-.782c.039,0,.156,0,.2.039l6.449,4.808a.3.3,0,0,1,.078.2L64.24,38.7a1,1,0,0,0,.391.938l6.293,4.69A8.976,8.976,0,0,1,73,43.434Z" transform="translate(-29.142 -3.623)" fill="#0a4273"/>
    <path id="Trazado_390" data-name="Trazado 390" d="M103.8,82.683l2.306,1.72a.038.038,0,0,1,.039.039l.743.469a4.3,4.3,0,0,0,2.423.821,1.465,1.465,0,0,0,.43-.039,3.928,3.928,0,0,0,3.322-4.456,4.279,4.279,0,0,0-.7-1.759,13.013,13.013,0,0,0-2.736.156l.86.625a2.079,2.079,0,0,1,.664,1.212,1.991,1.991,0,0,1-1.681,2.267,2.093,2.093,0,0,1-1.485-.469h-.039l-.7-.469-1.915-1.407A15.666,15.666,0,0,0,103.8,82.683Z" transform="translate(-62.253 -34.82)" fill="#0a4273"/>
    <path id="Trazado_391" data-name="Trazado 391" d="M85,63.1a.993.993,0,0,0,.2,1.368l3.909,2.892a12.46,12.46,0,0,1,1.642-1.173L86.372,62.9A.982.982,0,0,0,85,63.1Z" transform="translate(-50.688 -24.617)" fill="#0a4273"/>
    <path id="Trazado_392" data-name="Trazado 392" d="M111.935,84.453a1.571,1.571,0,0,0,1.094-.391.98.98,0,0,0-.039-1.368.945.945,0,0,0-1.133-.156h-.117a10.833,10.833,0,0,1-1.524-.938,11.036,11.036,0,0,0-1.915.977l.508.391a9.92,9.92,0,0,0,2.345,1.407A4.812,4.812,0,0,0,111.935,84.453Z" transform="translate(-64.995 -36.122)" fill="#0a4273"/>
    <path id="Trazado_393" data-name="Trazado 393" d="M113.947,84.635c-1.094-.313-1.212-1.134-1.251-1.954A14.493,14.493,0,0,0,102.651,69.9a37.326,37.326,0,0,0-4.1-.9H96.475c-.352.039-.625.039-.9.078a15.359,15.359,0,0,0-10.163,5.433c-2.931,3.518-2.971,5.9-3.518,8.6-.117.664.117,1.173-.7,1.407a1.09,1.09,0,0,0-.782,1.446c.313,1.407.977,6.41,1.329,7.778a1.121,1.121,0,0,0,1.563.9,11.2,11.2,0,0,1,1.094-.274c1.642-.391,1.8-.7,1.446-2.423a59.055,59.055,0,0,1-1.251-6.879,12.922,12.922,0,1,1,25.758.586,55.377,55.377,0,0,1-1.29,6.645,3.761,3.761,0,0,1-.782,1.642c-2.58,3.518-9.733,3.909-11.648,4.339-.235.039-.547.156-.664.039-1.134-.977-2.423-.508-3.674-.508a1.55,1.55,0,0,0-1.212.821c-.391,1.954-.039,2.814,1.837,2.7.43-.039.9.039,1.329-.039a9.926,9.926,0,0,0,1.446-.391c.469-.2.938-1.094,1.407-1.251,2.267-.664,9.733-1.016,12.117-5.081a2,2,0,0,1,2.306-.469,1.205,1.205,0,0,0,1.681-.977c.352-1.368,1.134-5.824,1.368-7.192A1.712,1.712,0,0,0,113.947,84.635Z" transform="translate(-47.971 -28.447)" fill="#0a4273"/>
  </g>
</svg>
