<svg xmlns="http://www.w3.org/2000/svg" width="65.002" height="48.363" viewBox="0 0 65.002 48.363">
  <g id="flow-7" transform="translate(-3 -25.1)">
    <path id="Trazado_353" data-name="Trazado 353" d="M64.759,41.5a.8.8,0,0,0-.8-.8H16.8a.8.8,0,0,0,0,1.591H63.963A.8.8,0,0,0,64.759,41.5Z" transform="translate(-7.83 -9.396)" fill="#0a4273"/>
    <path id="Trazado_354" data-name="Trazado 354" d="M19.659,54H16.8a.8.8,0,1,0,0,1.591h2.863a.8.8,0,1,0,0-1.591Z" transform="translate(-7.83 -17.406)" fill="#0a4273"/>
    <path id="Trazado_355" data-name="Trazado 355" d="M19.659,65.4H16.8a.8.8,0,0,0,0,1.591h2.863a.8.8,0,0,0,0-1.591Z" transform="translate(-7.83 -24.273)" fill="#0a4273"/>
    <path id="Trazado_356" data-name="Trazado 356" d="M19.659,76.8H16.8a.8.8,0,0,0,0,1.591h2.863a.8.8,0,0,0,0-1.591Z" transform="translate(-7.83 -31.139)" fill="#0a4273"/>
    <path id="Trazado_357" data-name="Trazado 357" d="M19.659,88.2H16.8a.8.8,0,0,0,0,1.591h2.863a.8.8,0,0,0,0-1.591Z" transform="translate(-7.83 -38.005)" fill="#0a4273"/>
    <path id="Trazado_358" data-name="Trazado 358" d="M19.659,99.6H16.8a.8.8,0,1,0,0,1.591h2.863a.8.8,0,1,0,0-1.591Z" transform="translate(-7.83 -44.871)" fill="#0a4273"/>
    <path id="Trazado_359" data-name="Trazado 359" d="M75.079,33.891a.8.8,0,1,0,0-1.591H68.8a.8.8,0,1,0,0,1.591Z" transform="translate(-39.149 -4.337)" fill="#0a4273"/>
    <path id="Trazado_360" data-name="Trazado 360" d="M100.479,33.891a.8.8,0,1,0,0-1.591H94.2a.8.8,0,1,0,0,1.591Z" transform="translate(-54.448 -4.337)" fill="#0a4273"/>
    <path id="Trazado_361" data-name="Trazado 361" d="M125.879,32.2H119.6a.8.8,0,0,0,0,1.591h6.284a.8.8,0,1,0,0-1.591Z" transform="translate(-69.746 -4.276)" fill="#0a4273"/>
    <path id="Trazado_362" data-name="Trazado 362" d="M42.969,71.234H36.447V66.74h4.3a.8.8,0,1,0,0-1.591H4.591l.08-38.418H59.911V45.184a.8.8,0,0,0,1.591,0V25.9a.8.8,0,0,0-.8-.8H3.875a.8.8,0,0,0-.8.8L3,65.9a.722.722,0,0,0,.239.557A.785.785,0,0,0,3.8,66.7H28.1v4.494H21.533a1.511,1.511,0,0,0-1.511,1.511c0,.835.676.756,1.511.756H42.969c.835,0,1.511.08,1.511-.756A1.477,1.477,0,0,0,42.969,71.234ZM29.686,66.779h5.13v4.415h-5.13Z" fill="#0a4273"/>
    <path id="Trazado_363" data-name="Trazado 363" d="M40.258,54.51,38.349,52.6l1.909-1.909A.816.816,0,0,0,39.1,49.539l-2.466,2.506a.816.816,0,0,0,0,1.153L39.144,55.7a.769.769,0,0,0,1.114,0A.865.865,0,0,0,40.258,54.51Z" transform="translate(-20.117 -14.576)" fill="#0a4273"/>
    <path id="Trazado_364" data-name="Trazado 364" d="M77.878,55.6a.769.769,0,0,0,1.114,0L81.5,53.1a.816.816,0,0,0,0-1.153l-2.506-2.506a.816.816,0,1,0-1.153,1.153L79.748,52.5,77.839,54.41A1.014,1.014,0,0,0,77.878,55.6Z" transform="translate(-44.931 -14.515)" fill="#0a4273"/>
    <path id="Trazado_365" data-name="Trazado 365" d="M57.869,49.17a.8.8,0,0,0-1.074.358l-2.625,5.25a.8.8,0,0,0,.358,1.074,1.161,1.161,0,0,0,.358.08.792.792,0,0,0,.716-.437l2.665-5.25A.813.813,0,0,0,57.869,49.17Z" transform="translate(-30.768 -14.446)" fill="#0a4273"/>
    <path id="Trazado_366" data-name="Trazado 366" d="M40.258,70.939a.816.816,0,0,0-1.153,0L36.639,73.4a.816.816,0,0,0,0,1.153l2.506,2.506a.769.769,0,0,0,1.114,0,.816.816,0,0,0,0-1.153L38.349,74l1.909-1.909A.816.816,0,0,0,40.258,70.939Z" transform="translate(-20.117 -27.465)" fill="#0a4273"/>
    <path id="Trazado_367" data-name="Trazado 367" d="M57.869,70.47a.8.8,0,0,0-1.074.358l-2.625,5.25a.8.8,0,0,0,.358,1.074,1.161,1.161,0,0,0,.358.08.792.792,0,0,0,.716-.437l2.625-5.25A.766.766,0,0,0,57.869,70.47Z" transform="translate(-30.768 -27.275)" fill="#0a4273"/>
    <path id="Trazado_368" data-name="Trazado 368" d="M40.258,92.239a.816.816,0,0,0-1.153,0l-2.466,2.506a.769.769,0,0,0,0,1.114l2.506,2.506a.769.769,0,0,0,1.114,0,.816.816,0,0,0,0-1.153L38.349,95.3l1.909-1.909A.816.816,0,0,0,40.258,92.239Z" transform="translate(-20.117 -40.294)" fill="#0a4273"/>
    <path id="Trazado_369" data-name="Trazado 369" d="M80.217,68.718l-2.148-.835a1.031,1.031,0,0,0-1.273.437l-1.034,1.79a10.393,10.393,0,0,0-1.114,0l-1.074-1.75a1.014,1.014,0,0,0-1.273-.4l-2.108.915a.962.962,0,0,0-.557,1.193l.557,1.989a7.146,7.146,0,0,0-.756.8l-1.989-.517a1.025,1.025,0,0,0-1.193.6l-.875,2.148a1.031,1.031,0,0,0,.437,1.273l1.79,1.034a10.4,10.4,0,0,0,0,1.114l-1.75,1.074a1.014,1.014,0,0,0-.4,1.273l.915,2.108a.962.962,0,0,0,1.193.557l1.989-.557a7.147,7.147,0,0,0,.8.756L69.837,85.7a1.025,1.025,0,0,0,.6,1.193l2.148.875a1.161,1.161,0,0,0,.358.08,1.036,1.036,0,0,0,.875-.517l1.034-1.79h.517a1.019,1.019,0,0,0,.994-1.034.985.985,0,0,0-.994-.994h-.477a1.9,1.9,0,0,0-1.71.915l-.636,1.153-.517-.2.318-1.273a1.856,1.856,0,0,0-.6-1.829,4.064,4.064,0,0,1-.716-.716,1.823,1.823,0,0,0-1.869-.557l-1.273.358-.2-.517,1.114-.676a1.812,1.812,0,0,0,.875-1.75,4.158,4.158,0,0,1,0-.994,1.9,1.9,0,0,0-.915-1.71l-1.153-.636.2-.517,1.273.318a1.856,1.856,0,0,0,1.829-.6,4.064,4.064,0,0,1,.716-.716,1.823,1.823,0,0,0,.557-1.869l-.358-1.273.517-.2.676,1.114a1.812,1.812,0,0,0,1.75.875,4.157,4.157,0,0,1,.994,0,1.854,1.854,0,0,0,1.71-.915l.636-1.153.517.2-.318,1.273a1.856,1.856,0,0,0,.6,1.829A1.016,1.016,0,0,0,80.3,71.979l.517-1.989A1.08,1.08,0,0,0,80.217,68.718Z" transform="translate(-37.526 -25.721)" fill="#0a4273"/>
    <path id="Trazado_370" data-name="Trazado 370" d="M81.885,82.674a2.981,2.981,0,0,1,2.267-.04,3.266,3.266,0,0,1,.994.636,1.012,1.012,0,0,0,1.432-1.432,4.845,4.845,0,0,0-1.631-1.074,5.074,5.074,0,0,0-3.818.04,4.936,4.936,0,0,0-2.665,2.7,5.074,5.074,0,0,0,.04,3.818,4.936,4.936,0,0,0,2.7,2.665,4.988,4.988,0,0,0,1.829.358,4.585,4.585,0,0,0,1.034-.119,1.014,1.014,0,1,0-.4-1.989,2.825,2.825,0,0,1-1.71-.159,2.909,2.909,0,0,1-1.631-1.591,2.785,2.785,0,0,1,0-2.187A2.845,2.845,0,0,1,81.885,82.674Z" transform="translate(-45.24 -33.314)" fill="#0a4273"/>
    <path id="Trazado_371" data-name="Trazado 371" d="M124.222,84.674l-.358-.119h-.08a.146.146,0,0,1-.119-.04l-3.023-.4a.086.086,0,0,1-.08-.08,12.93,12.93,0,0,0-.716-1.71v-.119l1.869-2.426a.978.978,0,0,0-.08-1.312L119.37,76.2a.978.978,0,0,0-1.312-.08l-2.426,1.869a.075.075,0,0,1-.119,0,12.93,12.93,0,0,0-1.71-.716.086.086,0,0,1-.08-.08l-.4-3.023a.99.99,0,0,0-.994-.875H109.11a.99.99,0,0,0-.994.875l-.4,3.023a.086.086,0,0,1-.08.08,12.929,12.929,0,0,0-1.71.716h-.119l-2.426-1.869a.978.978,0,0,0-1.312.08L99.8,78.47a.978.978,0,0,0-.08,1.312l1.869,2.426a.075.075,0,0,1,0,.119,12.929,12.929,0,0,0-.716,1.71.086.086,0,0,1-.08.08l-3.023.4a.99.99,0,0,0-.875.994v3.221a.99.99,0,0,0,.875.994l3.023.4a.086.086,0,0,1,.08.08,12.929,12.929,0,0,0,.716,1.71v.119l-1.869,2.426a.978.978,0,0,0,.08,1.312l2.267,2.267a.978.978,0,0,0,1.312.08l2.426-1.869a.075.075,0,0,1,.119,0,12.929,12.929,0,0,0,1.71.716.086.086,0,0,1,.08.08l.4,3.023a.99.99,0,0,0,.994.875h3.221a.99.99,0,0,0,.994-.875l.4-3.023a.086.086,0,0,1,.08-.08,12.929,12.929,0,0,0,1.71-.716h.119l2.426,1.869a.978.978,0,0,0,1.312-.08l2.267-2.267a.978.978,0,0,0,.08-1.312l-1.869-2.426a.075.075,0,0,1,0-.119,12.93,12.93,0,0,0,.716-1.71.086.086,0,0,1,.08-.08l3.023-.4a.99.99,0,0,0,.875-.994V85.748C124.58,85.271,124.58,84.833,124.222,84.674Zm-1.67,3.221-2.148.278a2.154,2.154,0,0,0-1.75,1.472A8.054,8.054,0,0,1,118.1,91a2.052,2.052,0,0,0,.2,2.267l1.312,1.75-1.034,1.034-1.75-1.312a2.215,2.215,0,0,0-2.267-.2,6.478,6.478,0,0,1-1.352.557,2.1,2.1,0,0,0-1.472,1.75l-.278,2.148h-1.472l-.278-2.148a2.154,2.154,0,0,0-1.472-1.75,8.053,8.053,0,0,1-1.352-.557,2.052,2.052,0,0,0-2.267.2l-1.75,1.312-1.034-1.034,1.312-1.75a2.215,2.215,0,0,0,.2-2.267,6.478,6.478,0,0,1-.557-1.352,2.1,2.1,0,0,0-1.75-1.472L98.889,87.9V86.424l2.148-.278a2.154,2.154,0,0,0,1.75-1.472,8.053,8.053,0,0,1,.557-1.352,2.052,2.052,0,0,0-.2-2.267l-1.312-1.75,1.034-1.034,1.75,1.312a2.215,2.215,0,0,0,2.267.2,6.479,6.479,0,0,1,1.352-.557,2.1,2.1,0,0,0,1.472-1.75l.278-2.148h1.472l.278,2.148a2.154,2.154,0,0,0,1.472,1.75,8.053,8.053,0,0,1,1.352.557,2.052,2.052,0,0,0,2.267-.2l1.75-1.312,1.034,1.034-1.312,1.75a2.215,2.215,0,0,0-.2,2.267,6.478,6.478,0,0,1,.557,1.352,2.1,2.1,0,0,0,1.75,1.472l2.148.278Z" transform="translate(-56.556 -29.031)" fill="#0a4273"/>
    <path id="Trazado_372" data-name="Trazado 372" d="M121.562,91.7a6.562,6.562,0,0,0,0,13.124,6.562,6.562,0,0,0,0-13.124Zm3.221,9.744a4.419,4.419,0,0,1-3.182,1.312,4.534,4.534,0,1,1,4.534-4.534A4.751,4.751,0,0,1,124.784,101.444Z" transform="translate(-67.457 -40.113)" fill="#0a4273"/>
  </g>
</svg>
