<svg xmlns="http://www.w3.org/2000/svg" width="65.004" height="55.466" viewBox="0 0 65.004 55.466">
  <g id="flow-6" transform="translate(-1 -15.4)">
    <path id="Trazado_312" data-name="Trazado 312" d="M63.882,21.164a.782.782,0,1,0-.782-.782A.784.784,0,0,0,63.882,21.164Z" transform="translate(-37.826 -2.558)" fill="#0a4273"/>
    <path id="Trazado_313" data-name="Trazado 313" d="M69.282,21.164a.782.782,0,1,0-.782-.782A.76.76,0,0,0,69.282,21.164Z" transform="translate(-41.115 -2.558)" fill="#0a4273"/>
    <path id="Trazado_314" data-name="Trazado 314" d="M74.682,21.164a.782.782,0,1,0-.782-.782A.76.76,0,0,0,74.682,21.164Z" transform="translate(-44.405 -2.558)" fill="#0a4273"/>
    <path id="Trazado_315" data-name="Trazado 315" d="M64.082,84.2a.782.782,0,1,0,.782.782A.784.784,0,0,0,64.082,84.2Z" transform="translate(-37.948 -41.907)" fill="#0a4273"/>
    <path id="Trazado_316" data-name="Trazado 316" d="M69.482,84.2a.782.782,0,1,0,.782.782A.784.784,0,0,0,69.482,84.2Z" transform="translate(-41.237 -41.907)" fill="#0a4273"/>
    <path id="Trazado_317" data-name="Trazado 317" d="M74.882,84.2a.782.782,0,1,0,.782.782A.784.784,0,0,0,74.882,84.2Z" transform="translate(-44.526 -41.907)" fill="#0a4273"/>
    <path id="Trazado_318" data-name="Trazado 318" d="M77.608,96.4H65.765a.664.664,0,1,0,0,1.329h11.8a.685.685,0,0,0,.665-.665A.626.626,0,0,0,77.608,96.4Z" transform="translate(-39.044 -49.339)" fill="#0a4273"/>
    <path id="Trazado_319" data-name="Trazado 319" d="M73.5,102.7H65.765a.665.665,0,1,0,0,1.329H73.5a.665.665,0,1,0,0-1.329Z" transform="translate(-39.044 -53.176)" fill="#0a4273"/>
    <path id="Trazado_320" data-name="Trazado 320" d="M121.682,47.7a.782.782,0,1,0,.782.782A.76.76,0,0,0,121.682,47.7Z" transform="translate(-73.033 -19.674)" fill="#0a4273"/>
    <path id="Trazado_321" data-name="Trazado 321" d="M127.082,47.7a.782.782,0,1,0,.782.782A.76.76,0,0,0,127.082,47.7Z" transform="translate(-76.322 -19.674)" fill="#0a4273"/>
    <path id="Trazado_322" data-name="Trazado 322" d="M132.482,47.7a.782.782,0,1,0,.782.782A.784.784,0,0,0,132.482,47.7Z" transform="translate(-79.612 -19.674)" fill="#0a4273"/>
    <path id="Trazado_323" data-name="Trazado 323" d="M123.465,61.229h11.8a.664.664,0,1,0,0-1.329h-11.8a.664.664,0,1,0,0,1.329Z" transform="translate(-74.191 -27.106)" fill="#0a4273"/>
    <path id="Trazado_324" data-name="Trazado 324" d="M131.768,66.865a.685.685,0,0,0-.664-.664h-7.739a.664.664,0,1,0,0,1.329H131.1A.659.659,0,0,0,131.768,66.865Z" transform="translate(-74.13 -30.943)" fill="#0a4273"/>
    <path id="Trazado_325" data-name="Trazado 325" d="M121.682,84.2a.782.782,0,1,0,.782.782A.784.784,0,0,0,121.682,84.2Z" transform="translate(-73.033 -41.907)" fill="#0a4273"/>
    <path id="Trazado_326" data-name="Trazado 326" d="M127.082,84.2a.782.782,0,1,0,.782.782A.784.784,0,0,0,127.082,84.2Z" transform="translate(-76.322 -41.907)" fill="#0a4273"/>
    <path id="Trazado_327" data-name="Trazado 327" d="M132.482,84.2a.782.782,0,1,0,.782.782A.784.784,0,0,0,132.482,84.2Z" transform="translate(-79.612 -41.907)" fill="#0a4273"/>
    <path id="Trazado_328" data-name="Trazado 328" d="M123.465,97.729h11.8a.664.664,0,1,0,0-1.329h-11.8a.664.664,0,1,0,0,1.329Z" transform="translate(-74.191 -49.339)" fill="#0a4273"/>
    <path id="Trazado_329" data-name="Trazado 329" d="M131.768,103.364a.685.685,0,0,0-.664-.664h-7.739a.664.664,0,1,0,0,1.329H131.1A.659.659,0,0,0,131.768,103.364Z" transform="translate(-74.13 -53.176)" fill="#0a4273"/>
    <path id="Trazado_330" data-name="Trazado 330" d="M6.182,47.7a.782.782,0,1,0,.782.782A.784.784,0,0,0,6.182,47.7Z" transform="translate(-2.68 -19.674)" fill="#0a4273"/>
    <path id="Trazado_331" data-name="Trazado 331" d="M11.582,47.7a.782.782,0,1,0,.782.782A.784.784,0,0,0,11.582,47.7Z" transform="translate(-5.969 -19.674)" fill="#0a4273"/>
    <path id="Trazado_332" data-name="Trazado 332" d="M16.882,47.7a.782.782,0,1,0,.782.782A.738.738,0,0,0,16.882,47.7Z" transform="translate(-9.198 -19.674)" fill="#0a4273"/>
    <path id="Trazado_333" data-name="Trazado 333" d="M7.865,61.229h11.8a.664.664,0,1,0,0-1.329H7.865a.685.685,0,0,0-.665.665A.714.714,0,0,0,7.865,61.229Z" transform="translate(-3.777 -27.106)" fill="#0a4273"/>
    <path id="Trazado_334" data-name="Trazado 334" d="M7.865,67.529H15.6a.664.664,0,1,0,0-1.329H7.865a.664.664,0,1,0,0,1.329Z" transform="translate(-3.777 -30.943)" fill="#0a4273"/>
    <path id="Trazado_335" data-name="Trazado 335" d="M6.182,84.2a.782.782,0,1,0,.782.782A.784.784,0,0,0,6.182,84.2Z" transform="translate(-2.68 -41.907)" fill="#0a4273"/>
    <path id="Trazado_336" data-name="Trazado 336" d="M11.582,84.2a.782.782,0,1,0,.782.782A.784.784,0,0,0,11.582,84.2Z" transform="translate(-5.969 -41.907)" fill="#0a4273"/>
    <path id="Trazado_337" data-name="Trazado 337" d="M16.882,84.2a.782.782,0,1,0,.782.782A.76.76,0,0,0,16.882,84.2Z" transform="translate(-9.198 -41.907)" fill="#0a4273"/>
    <path id="Trazado_338" data-name="Trazado 338" d="M7.865,97.729h11.8a.664.664,0,1,0,0-1.329H7.865a.685.685,0,0,0-.665.664A.714.714,0,0,0,7.865,97.729Z" transform="translate(-3.777 -49.339)" fill="#0a4273"/>
    <path id="Trazado_339" data-name="Trazado 339" d="M7.865,104.029H15.6a.664.664,0,1,0,0-1.329H7.865a.685.685,0,0,0-.665.664A.714.714,0,0,0,7.865,104.029Z" transform="translate(-3.777 -53.176)" fill="#0a4273"/>
    <path id="Trazado_340" data-name="Trazado 340" d="M6.182,120.7a.782.782,0,1,0,.782.782A.784.784,0,0,0,6.182,120.7Z" transform="translate(-2.68 -64.14)" fill="#0a4273"/>
    <path id="Trazado_341" data-name="Trazado 341" d="M11.582,120.7a.782.782,0,1,0,.782.782A.784.784,0,0,0,11.582,120.7Z" transform="translate(-5.969 -64.14)" fill="#0a4273"/>
    <path id="Trazado_342" data-name="Trazado 342" d="M16.882,120.7a.782.782,0,1,0,.782.782A.738.738,0,0,0,16.882,120.7Z" transform="translate(-9.198 -64.14)" fill="#0a4273"/>
    <path id="Trazado_343" data-name="Trazado 343" d="M7.865,134.229h11.8a.664.664,0,1,0,0-1.329H7.865a.664.664,0,1,0,0,1.329Z" transform="translate(-3.777 -71.571)" fill="#0a4273"/>
    <path id="Trazado_344" data-name="Trazado 344" d="M7.865,140.529H15.6a.665.665,0,0,0,0-1.329H7.865a.685.685,0,0,0-.665.665A.714.714,0,0,0,7.865,140.529Z" transform="translate(-3.777 -75.409)" fill="#0a4273"/>
    <path id="Trazado_345" data-name="Trazado 345" d="M24.675,122.92H23.62v-1.055a.685.685,0,0,0-.664-.664H21.861v1.329h.43v9.733H6.89v-.43H5.6v1.094a.685.685,0,0,0,.665.665H7.32v1.055a.685.685,0,0,0,.665.665h16.73a.685.685,0,0,0,.665-.665V123.623A.725.725,0,0,0,24.675,122.92Zm-.665,11.023H8.61v-.391H22.955a.685.685,0,0,0,.664-.665v-8.639h.391Z" transform="translate(-2.802 -64.445)" fill="#0a4273"/>
    <path id="Trazado_346" data-name="Trazado 346" d="M138.494,121.2H137.4v1.329h.43v9.733h-15.4v-.43H121.1v1.094a.685.685,0,0,0,.665.664h16.73a.685.685,0,0,0,.664-.664V121.9A.647.647,0,0,0,138.494,121.2Z" transform="translate(-73.155 -64.445)" fill="#0a4273"/>
    <path id="Trazado_347" data-name="Trazado 347" d="M64.206,66.645V55.622a.685.685,0,0,0-.664-.665H56.232V53.042h7.309a.685.685,0,0,0,.664-.665V41.355a.685.685,0,0,0-.664-.664H56.232V38.775h7.309a.685.685,0,0,0,.664-.665V27.087a.685.685,0,0,0-.664-.664H56.232V25.328a.685.685,0,0,0-.665-.665H41.613v-8.6a.685.685,0,0,0-.665-.665H24.218a.685.685,0,0,0-.664.665v8.6H9.912a.685.685,0,0,0-.665.665v1.094H1.665A.685.685,0,0,0,1,27.087V38.11a.685.685,0,0,0,.665.664H9.248V40.69H1.665A.685.685,0,0,0,1,41.355V52.377a.685.685,0,0,0,.665.664H9.248v1.915H1.665A.685.685,0,0,0,1,55.622V66.645a.685.685,0,0,0,.665.664h16.73a.685.685,0,0,0,.664-.664V55.622a.685.685,0,0,0-.664-.665H10.577V53.042h7.818a.685.685,0,0,0,.664-.665V41.355a.685.685,0,0,0-.664-.664H10.577V38.775h7.818a.685.685,0,0,0,.664-.665V27.087a.685.685,0,0,0-.664-.664H10.577v-.43H23.593V36.039a.685.685,0,0,0,.665.665h7.7V40.69H24.3a.685.685,0,0,0-.664.664V52.377a.685.685,0,0,0,.664.664h1.094v.86a.685.685,0,0,0,.665.664h1.055v1.055a.685.685,0,0,0,.664.664h16.73a.685.685,0,0,0,.665-.664V44.6a.685.685,0,0,0-.665-.665H43.45V42.879a.685.685,0,0,0-.664-.664H41.652v-.86a.685.685,0,0,0-.665-.665H33.248V36.7h7.7a.685.685,0,0,0,.664-.664V25.993H54.942v.43H46.89a.685.685,0,0,0-.664.664V38.11a.685.685,0,0,0,.664.664h8.052V40.69H46.89a.685.685,0,0,0-.664.664V52.377a.685.685,0,0,0,.664.664h8.052v1.915H46.89a.685.685,0,0,0-.664.665V66.645a.685.685,0,0,0,.664.664H63.541A.685.685,0,0,0,64.206,66.645ZM17.73,65.98H2.329V60h15.4Zm0-9.694V58.71H2.329V56.286h15.4Zm0-4.573H2.329V45.732h15.4Zm0-9.694v2.423H2.329V42.019h15.4Zm0-4.573H2.329V31.465h15.4Zm0-9.694v2.423H2.329V27.752h15.4Zm7.231,23.961V45.732h15.4v5.981ZM43.411,53.9V45.263H43.8V55H28.4v-.391H42.746A.721.721,0,0,0,43.411,53.9Zm-1.759-1.524V43.544h.43v9.733h-15.4v-.235H40.987A.659.659,0,0,0,41.652,52.377Zm-1.29-10.358v2.423h-15.4V42.019h15.4ZM40.284,24.7v10.71h-15.4V20.481h15.4Zm0-5.551h-15.4V16.729h15.4Zm7.192,8.6h15.44v2.423h-15.4V27.752Zm0,9.694V31.465h15.4v5.981h-15.4Zm0,4.573h15.44v2.423h-15.4V42.019Zm0,9.694V45.732h15.4v5.981h-15.4Zm15.4,14.267h-15.4V60h15.4Zm0-7.31h-15.4V56.286h15.44v2.384Z" transform="translate(0 0)" fill="#0a4273"/>
    <circle id="Elipse_35" data-name="Elipse 35" cx="0.782" cy="0.782" r="0.782" transform="translate(47.867 56.56)" fill="#0a4273"/>
    <circle id="Elipse_36" data-name="Elipse 36" cx="0.782" cy="0.782" r="0.782" transform="translate(49.978 56.56)" fill="#0a4273"/>
    <circle id="Elipse_37" data-name="Elipse 37" cx="0.782" cy="0.782" r="0.782" transform="translate(52.088 56.56)" fill="#0a4273"/>
    <path id="Trazado_348" data-name="Trazado 348" d="M123.465,134.229h11.8a.664.664,0,1,0,0-1.329h-11.8a.664.664,0,1,0,0,1.329Z" transform="translate(-74.191 -71.571)" fill="#0a4273"/>
    <path id="Trazado_349" data-name="Trazado 349" d="M123.465,140.529H131.2a.665.665,0,0,0,0-1.329h-7.739a.665.665,0,1,0,0,1.329Z" transform="translate(-74.191 -75.409)" fill="#0a4273"/>
    <path id="Trazado_350" data-name="Trazado 350" d="M65.765,38.773H77.452a.685.685,0,0,0,.664-.665V34.864a.685.685,0,0,0-.664-.664H65.765a.685.685,0,0,0-.665.664v3.244A.659.659,0,0,0,65.765,38.773Zm.664-3.244H76.787v1.954H66.429Z" transform="translate(-39.044 -11.451)" fill="#0a4273"/>
    <path id="Trazado_351" data-name="Trazado 351" d="M65.465,51.129H77.426a.664.664,0,0,0,0-1.329H65.465a.685.685,0,0,0-.665.664A.659.659,0,0,0,65.465,51.129Z" transform="translate(-38.862 -20.954)" fill="#0a4273"/>
    <path id="Trazado_352" data-name="Trazado 352" d="M65.465,59.129h8.169a.665.665,0,0,0,0-1.329H65.465a.685.685,0,0,0-.665.665A.659.659,0,0,0,65.465,59.129Z" transform="translate(-38.862 -25.827)" fill="#0a4273"/>
  </g>
</svg>
