<?xml version="1.0" encoding="utf-8"?>
<!-- Generator: Adobe Illustrator 23.0.0, SVG Export Plug-In . SVG Version: 6.00 Build 0)  -->
<svg version="1.1" id="Capa_1" xmlns="http://www.w3.org/2000/svg" xmlns:xlink="http://www.w3.org/1999/xlink" x="0px" y="0px"
	 viewBox="0 0 285 58" style="enable-background:new 0 0 285 58;" xml:space="preserve">
<style type="text/css">
	.st0{fill:#021F59;}
</style>
<g id="_1s-logo-black" transform="translate(-62.49 -127.07)">
	<g id="Grupo_112" transform="translate(120.744 135.693)">
		<g id="Grupo_110" transform="translate(0 0)">
			<path id="Trazado_31" class="st0" d="M4.71,17.06V4.22h10.04v2.41H7.33v2.74h6.37v2.39H7.33v5.29L4.71,17.06z"/>
			<path id="Trazado_32" class="st0" d="M28.71,17.06V4.22h2.63v12.84L28.71,17.06z"/>
			<path id="Trazado_33" class="st0" d="M57.84,17.06h-3.36l-4.03-5.45h-1.48l-0.02,5.46h-2.61V4.24h6.31
				c2.78,0,4.46,1.51,4.46,3.66c0.03,1.98-1.54,3.62-3.53,3.65c0,0,0,0-0.01,0L57.84,17.06z M48.96,9.2h3.68
				c1.16,0,1.8-0.52,1.8-1.31s-0.64-1.25-1.8-1.25h-3.68L48.96,9.2z"/>
			<path id="Trazado_34" class="st0" d="M70.4,15.38l1.56-1.91c1.35,0.9,2.94,1.38,4.56,1.37c1.64,0,2.8-0.52,2.8-1.49
				s-1.37-1.22-2.67-1.43l-0.21-0.02c-0.04,0-0.06-0.02-0.08-0.02c-0.03,0-0.07-0.01-0.09-0.02c-3.94-0.68-5.25-1.76-5.25-3.73
				C71.01,4.92,74.1,4,76.73,4c1.93,0.12,3.8,0.68,5.46,1.66l-1.64,1.89c-1.17-0.7-2.5-1.08-3.86-1.1c-1.97,0-2.99,0.6-2.99,1.58
				c0,0.75,0.72,1.12,3.05,1.45c1.86,0.29,5.29,0.75,5.29,3.84c0,2.36-2.14,3.98-5.54,3.98C74.33,17.22,72.23,16.56,70.4,15.38z"/>
			<path id="Trazado_35" class="st0" d="M102.09,6.63v10.43h-2.65V6.63H95V4.22h11.52v2.41H102.09z"/>
			<path id="Trazado_36" class="st0" d="M137.33,15.38l1.56-1.91c1.35,0.9,2.93,1.38,4.56,1.37c1.64,0,2.8-0.52,2.8-1.49
				s-1.37-1.22-2.67-1.43l-0.21-0.02c-0.04,0-0.06-0.02-0.08-0.02c-0.03,0-0.07-0.01-0.09-0.02c-3.94-0.68-5.25-1.76-5.25-3.73
				c0-3.22,3.09-4.15,5.71-4.15c1.93,0.12,3.8,0.68,5.46,1.66l-1.64,1.89c-1.17-0.7-2.5-1.08-3.86-1.1c-1.97,0-2.99,0.6-2.99,1.58
				c0,0.75,0.72,1.12,3.05,1.45c1.86,0.29,5.29,0.75,5.29,3.84c0,2.36-2.14,3.98-5.54,3.98C141.25,17.22,139.15,16.56,137.33,15.38z
				"/>
			<path id="Trazado_37" class="st0" d="M169,6.63v10.43h-2.65V6.63h-4.44V4.22h11.52v2.41H169z"/>
			<path id="Trazado_38" class="st0" d="M197.18,17.06h-10.17V4.22h10.04v2.41h-7.41v2.74H196v2.39h-6.37v2.87h7.55L197.18,17.06
				L197.18,17.06z"/>
			<path id="Trazado_39" class="st0" d="M213.87,17.08h-2.61V4.24h6.31c2.78,0,4.46,1.51,4.46,3.66c0,2.12-1.68,3.7-4.46,3.7h-3.68
				L213.87,17.08z M217.58,9.2c1.16,0,1.8-0.52,1.8-1.31s-0.64-1.25-1.8-1.25h-3.68V9.2L217.58,9.2z"/>
		</g>
		<g id="Grupo_111" transform="translate(133.178 20.662)">
			<path id="Trazado_40" class="st0" d="M13.29,8.39c0,2.7-2.14,4.4-5.04,4.4H4.71v-8.8h3.54C11.14,4.01,13.29,5.72,13.29,8.39z
				 M12.11,8.39c0-2.05-1.52-3.41-3.86-3.41h-2.4v6.84h2.4C10.59,11.82,12.11,10.46,12.11,8.39L12.11,8.39z"/>
			<path id="Trazado_41" class="st0" d="M25.56,12.09c0.78,0.01,1.53-0.27,2.12-0.78L28.32,12c-0.76,0.65-1.74,0.99-2.74,0.96
				c-1.83,0.16-3.44-1.2-3.6-3.03c-0.01-0.1-0.01-0.2-0.01-0.3c-0.02-1.79,1.41-3.26,3.2-3.28c0.11,0,0.21,0,0.32,0.01
				c1.61-0.18,3.06,0.99,3.24,2.6c0.01,0.09,0.02,0.18,0.02,0.27c0,0.27-0.04,0.53-0.09,0.79h-5.59
				C23.2,11.28,24.31,12.19,25.56,12.09z M27.63,9.15c0-1.07-0.86-1.93-1.93-1.93c-0.08,0-0.15,0-0.23,0.01
				c-1.19-0.09-2.25,0.75-2.42,1.93h4.58L27.63,9.15z"/>
			<path id="Trazado_42" class="st0" d="M37.23,12.18l0.5-0.76c0.76,0.43,1.61,0.66,2.49,0.65c0.91,0,1.85-0.24,1.85-1
				c0-0.68-0.88-0.82-1.93-0.99c-1.71-0.29-2.63-0.62-2.63-1.77c0-1.49,1.56-1.93,2.88-1.93c0.91-0.01,1.81,0.21,2.61,0.65
				l-0.5,0.76c-0.65-0.35-1.39-0.53-2.13-0.52c-1.15,0-1.77,0.35-1.77,1c0,0.5,0.33,0.68,1.7,0.9c1.56,0.26,2.87,0.5,2.87,1.84
				c0,1.27-1.22,1.97-2.95,1.97C39.17,12.99,38.14,12.71,37.23,12.18z"/>
			<path id="Trazado_43" class="st0" d="M52.64,4.76c0.04-0.41,0.41-0.7,0.81-0.66c0.35,0.04,0.62,0.31,0.66,0.66
				c-0.04,0.41-0.41,0.7-0.81,0.66C52.95,5.39,52.67,5.11,52.64,4.76z M52.84,12.8V6.52h1.05v6.28H52.84z"/>
			<path id="Trazado_44" class="st0" d="M68.66,7.26c0.34,0.38,0.52,0.88,0.52,1.39c0,1.39-1.17,2.3-2.87,2.3
				c-0.35,0-0.7-0.04-1.05-0.12h-0.12c-0.52,0-0.8,0.21-0.8,0.62s0.34,0.6,0.87,0.6h1.23c2.38,0,3.48,0.61,3.48,1.93
				s-1.08,2.13-3.44,2.13s-3.58-0.91-3.58-2.08c0-0.65,0.42-1.22,1.03-1.43c-0.4-0.24-0.64-0.67-0.65-1.14
				c-0.01-0.56,0.41-1.05,0.96-1.13c-0.52-0.41-0.82-1.04-0.8-1.7c0-1.36,1.14-2.29,2.87-2.29c0.39-0.01,0.79,0.05,1.17,0.16h2.45
				l-0.26,0.74L68.66,7.26L68.66,7.26z M66.43,12.93h-1.55c-0.64,0.24-0.91,0.58-0.91,1.06c0,0.68,0.66,1.22,2.5,1.22
				c1.71,0,2.36-0.43,2.36-1.23C68.84,13.21,68.22,12.93,66.43,12.93L66.43,12.93z M68.1,8.64c0-0.86-0.65-1.41-1.8-1.41
				s-1.82,0.54-1.82,1.41c0,0.9,0.66,1.43,1.82,1.43S68.1,9.55,68.1,8.64L68.1,8.64z"/>
			<path id="Trazado_45" class="st0" d="M85.02,8.92v3.87h-1.05V9.03c0.05-0.94-0.67-1.74-1.61-1.79c-0.11-0.01-0.22,0-0.32,0.01
				c-1.09-0.11-2.07,0.69-2.18,1.78c0,0.02,0,0.04-0.01,0.07v3.69h-1.05V6.51h1.05v0.72c0.6-0.66,1.49-0.99,2.38-0.87
				c1.4-0.13,2.64,0.91,2.77,2.31C85.01,8.75,85.02,8.84,85.02,8.92z"/>
		</g>
	</g>
	<g id="Grupo_113" transform="translate(62.49 127.07)">
		<path id="Trazado_46" class="st0" d="M20.65,34.79h20.66c1.99-0.19,3.45-1.95,3.26-3.94c-0.18-1.86-1.74-3.28-3.6-3.28h-11.8
			c-4.51,0.01-8.18-3.64-8.18-8.16c-0.01-4.51,3.64-8.18,8.16-8.18l0,0H43.3l4.17-7.22h-19c-2.66,0.11-5.24,0.92-7.49,2.35V4h-7.13
			L4.71,19.83h7.22l1.84-3.19v30.12L20.65,34.79z"/>
		<path id="Trazado_47" class="st0" d="M56.03,27.58C54.34,21,48.56,16.3,41.78,16H28.96c-1.99,0.19-3.45,1.95-3.26,3.94
			c0.18,1.86,1.74,3.28,3.6,3.28h11.8c4.51-0.01,8.18,3.64,8.18,8.16c0.01,4.51-3.64,8.18-8.16,8.18H23.65l-4.17,7.22h-5.72L9.58,54
			h5.73l4.17-7.23c0,0,22.08,0.01,22.3,0c8.23-0.37,14.72-7.15,14.71-15.39C56.5,30.1,56.34,28.82,56.03,27.58z"/>
		<path id="Trazado_48" class="st0" d="M20.95,46.76h20.84c5.06-0.22,9.68-2.92,12.37-7.22"/>
	</g>
</g>
</svg>
