<svg xmlns="http://www.w3.org/2000/svg" width="59.988" height="65" viewBox="0 0 59.988 65">
  <g id="flow-2" transform="translate(-4.625 -1.6)">
    <path id="Trazado_257" data-name="Trazado 257" d="M102.208,17.171a5.919,5.919,0,0,0-4.2-5.659,12.167,12.167,0,0,0-3.86-.712H85.907a1.047,1.047,0,0,0-1.049,1.049A1.025,1.025,0,0,0,85.907,12.9h8.244a9.644,9.644,0,0,1,3.148.6,3.831,3.831,0,0,1,2.811,3.71c.037,3.785.037,6.033,0,7.832v2.436c0,1.387,0,3.26-1.087,4.385a4.851,4.851,0,0,1-3.485,1.087H86.169a1.084,1.084,0,0,0-1.049.937l-.375,4.01-4.684-4.647a1.046,1.046,0,0,0-.749-.3H66.682a7.552,7.552,0,0,1-.862-.037,1.035,1.035,0,1,0-.187,2.061c.412.037.787.037,1.049.037H78.861l5.958,5.884a1.046,1.046,0,0,0,.749.3,1.094,1.094,0,0,0,.337-.075,1.066,1.066,0,0,0,.675-.9l.487-5.246h8.394a6.66,6.66,0,0,0,4.984-1.724c1.724-1.724,1.724-4.31,1.686-5.884v-2.4C102.208,23.242,102.246,20.993,102.208,17.171Z" transform="translate(-37.61 -5.752)" fill="#0a4273"/>
    <path id="Trazado_258" data-name="Trazado 258" d="M19.755,25.771l.487,5.246a1.066,1.066,0,0,0,.675.9,1.094,1.094,0,0,0,.337.075,1.19,1.19,0,0,0,.749-.3l5.958-5.884H40.142a7.129,7.129,0,0,0,3.523-.749c1.686-.974,2.623-2.736,2.736-5.246.187-3.822.075-7.682.037-9.968,0-.749-.037-1.349-.037-1.724A6.647,6.647,0,0,0,39.392,1.6H12.71a12.167,12.167,0,0,0-3.86.712,5.919,5.919,0,0,0-4.2,5.659c-.037,3.822-.037,6.071,0,7.907v2.4c0,1.536-.037,4.122,1.686,5.884a6.812,6.812,0,0,0,4.984,1.724ZM7.838,22.623c-1.124-1.124-1.087-3-1.087-4.385V15.8c0-1.8-.037-4.047,0-7.832a3.831,3.831,0,0,1,2.811-3.71,9.134,9.134,0,0,1,3.148-.637H39.43A4.791,4.791,0,0,1,43.4,5.347a4.717,4.717,0,0,1,.974,2.7c0,.412,0,1.012.037,1.8.037,2.286.15,6.071-.037,9.818-.15,3.523-2.1,4.01-4.2,4.01H27.55a1.19,1.19,0,0,0-.749.3l-4.684,4.684-.375-4.01a1.029,1.029,0,0,0-1.049-.937H11.324A4.851,4.851,0,0,1,7.838,22.623Z" fill="#0a4273"/>
    <path id="Trazado_259" data-name="Trazado 259" d="M25.049,23.4h25.3a1.047,1.047,0,0,0,1.049-1.049A1.025,1.025,0,0,0,50.345,21.3h-25.3A1.047,1.047,0,0,0,24,22.349,1.025,1.025,0,0,0,25.049,23.4Z" transform="translate(-12.114 -12.318)" fill="#0a4273"/>
    <path id="Trazado_260" data-name="Trazado 260" d="M42.025,42.549A1.047,1.047,0,0,0,40.976,41.5H25.049A1.047,1.047,0,0,0,24,42.549,1.025,1.025,0,0,0,25.049,43.6H40.976A1.1,1.1,0,0,0,42.025,42.549Z" transform="translate(-12.114 -24.961)" fill="#0a4273"/>
    <path id="Trazado_261" data-name="Trazado 261" d="M120.849,32.8h7.795a1.049,1.049,0,1,0,0-2.1h-7.795a1.047,1.047,0,0,0-1.049,1.049A1.025,1.025,0,0,0,120.849,32.8Z" transform="translate(-72.065 -18.195)" fill="#0a4273"/>
    <path id="Trazado_262" data-name="Trazado 262" d="M120.849,52.9h4.422a1.047,1.047,0,0,0,1.049-1.049,1.025,1.025,0,0,0-1.049-1.049h-4.422a1.047,1.047,0,0,0-1.049,1.049A1.025,1.025,0,0,0,120.849,52.9Z" transform="translate(-72.055 -30.779)" fill="#0a4273"/>
    <path id="Trazado_263" data-name="Trazado 263" d="M43.6,101.7Z" transform="translate(-24.382 -62.62)" fill="#0a4273"/>
    <path id="Trazado_264" data-name="Trazado 264" d="M116.965,92.246a5.871,5.871,0,0,0-1.611-4.122,5.8,5.8,0,0,0-4.047-1.724h-.037a5.777,5.777,0,0,0-4.047,9.856,5.272,5.272,0,0,0,2.736,1.536,5.026,5.026,0,0,0-2.7,1.536,5.982,5.982,0,0,0-1.312,2.211l-9.818-8.694a1.035,1.035,0,0,0-1.387,1.536l10.905,9.631v14.54A1.047,1.047,0,0,0,106.7,119.6h0a1.047,1.047,0,0,0,1.049-1.049V103.526a3.942,3.942,0,0,1,1.049-2.811,3.445,3.445,0,0,1,2.548-1.049c2.061,0,3.485,1.574,3.523,3.822.037,2.96.037,11.8,0,15.027a1.047,1.047,0,0,0,1.049,1.049h0a1.047,1.047,0,0,0,1.049-1.049V103.488a5.642,5.642,0,0,0-4.31-5.734A5.8,5.8,0,0,0,116.965,92.246Zm-2.1-.037a3.631,3.631,0,0,1-3.635,3.6h0a3.456,3.456,0,0,1-2.548-1.087,3.5,3.5,0,0,1-1.049-2.623,3.546,3.546,0,0,1,3.635-3.635h.037a3.4,3.4,0,0,1,2.548,1.087,3.8,3.8,0,0,1,1.012,2.661Z" transform="translate(-56.189 -53.077)" fill="#0a4273"/>
    <path id="Trazado_265" data-name="Trazado 265" d="M34.3,98.829a1.045,1.045,0,0,0-1.424.375l-2.848,4.947-6.183-3.073a5.515,5.515,0,0,0-3.86-3.223,5.529,5.529,0,0,0,2.7-1.5,5.778,5.778,0,0,0,1.686-4.122A5.64,5.64,0,0,0,18.634,86.5H18.6a5.756,5.756,0,0,0-1.274,11.355,5.5,5.5,0,0,0-4.31,5.284c-.075,3.373-.075,12.4-.037,15.514a1.072,1.072,0,0,0,1.049,1.049h0a1.072,1.072,0,0,0,1.049-1.049c-.037-3.335-.037-12.367.037-15.44a3.44,3.44,0,0,1,3.523-3.373h.037a3.479,3.479,0,0,1,3.523,3.448c.037,2.136.037,8.095.037,12.029v3.373a1.047,1.047,0,0,0,1.049,1.049h0a1.047,1.047,0,0,0,1.049-1.049v-3.373c0-3.935.037-9.181,0-11.617l5.659,2.811a1,1,0,0,0,.45.112,1.009,1.009,0,0,0,.9-.525l3.335-5.771A1.117,1.117,0,0,0,34.3,98.829ZM15.036,92.271a3.578,3.578,0,0,1,3.6-3.71h0a3.534,3.534,0,0,1,3.635,3.673h0A3.647,3.647,0,0,1,18.6,95.906,3.648,3.648,0,0,1,15.036,92.271Z" transform="translate(-5.174 -53.14)" fill="#0a4273"/>
  </g>
</svg>
