<svg xmlns="http://www.w3.org/2000/svg" width="30" height="30.909" viewBox="0 0 30 30.909">
  <g id="cta-contact" transform="translate(-16.8 -23.7)">
    <path id="Trazado_394" data-name="Trazado 394" d="M34.413,23.7H17.442a.656.656,0,0,0-.642.642V48.629a.656.656,0,0,0,.642.642h7.041a.656.656,0,0,0,.642-.642.641.641,0,0,0-.642-.642h-6.4V24.961H33.771V38.011a.656.656,0,0,0,.642.642.641.641,0,0,0,.642-.642V24.319A.637.637,0,0,0,34.413,23.7Z" transform="translate(0 0)" fill="#fff"/>
    <path id="Trazado_395" data-name="Trazado 395" d="M33.242,85.284H36.2A.642.642,0,1,0,36.2,84H33.242a.642.642,0,1,0,0,1.284Z" transform="translate(-12.176 -46.601)" fill="#fff"/>
    <path id="Trazado_396" data-name="Trazado 396" d="M42.553,56.3H33.242a.642.642,0,1,0,0,1.284h9.311a.656.656,0,0,0,.642-.642A.641.641,0,0,0,42.553,56.3Z" transform="translate(-12.176 -25.194)" fill="#fff"/>
    <path id="Trazado_397" data-name="Trazado 397" d="M42.553,42.4H33.242a.642.642,0,1,0,0,1.284h9.311a.656.656,0,0,0,.642-.642A.641.641,0,0,0,42.553,42.4Z" transform="translate(-12.176 -14.411)" fill="#fff"/>
    <path id="Trazado_398" data-name="Trazado 398" d="M42.553,70.2H33.242a.642.642,0,1,0,0,1.284h9.311a.656.656,0,0,0,.642-.642A.627.627,0,0,0,42.553,70.2Z" transform="translate(-12.176 -35.936)" fill="#fff"/>
    <path id="Trazado_399" data-name="Trazado 399" d="M36.659,99.184a.642.642,0,1,0,0-1.284H33.242a.656.656,0,0,0-.642.642v3.188a.656.656,0,0,0,.642.642h3.417a.642.642,0,1,0,0-1.284H33.884V99.207l2.775-.023Z" transform="translate(-12.176 -57.362)" fill="#fff"/>
    <path id="Trazado_400" data-name="Trazado 400" d="M79.184,91.1H59.942a.656.656,0,0,0-.642.642v14.448a.656.656,0,0,0,.642.642H79.184a.656.656,0,0,0,.642-.642V91.742A.641.641,0,0,0,79.184,91.1Zm-18.6,4.082,5.8,3.6-5.8,5.8Zm.826,10.389,6.078-6.055,1.812,1.124a.691.691,0,0,0,.688,0l1.628-1.009,6.123,5.986H61.41Zm17.132-1.009L72.762,98.9l5.779-3.578Zm0-10.779-8.9,5.5-9.059-5.619V92.407H78.542Z" transform="translate(-33.026 -52.224)" fill="#fff"/>
  </g>
</svg>
