<svg xmlns="http://www.w3.org/2000/svg" width="64.993" height="59.065" viewBox="0 0 64.993 59.065">
  <g id="flow-8" transform="translate(-1 -10.6)">
    <path id="Trazado_373" data-name="Trazado 373" d="M60.822,45.208h-4.39V42.464H74.07a.97.97,0,0,0,.98-.98V38.859a9.477,9.477,0,0,1-1.842.157h-.157v1.45H32.8V36.781H66.858a10.087,10.087,0,0,1-1.881-2H32.8V12.56H73.09v6.114h.157a14,14,0,0,1,1.842.157V11.58a.97.97,0,0,0-.98-.98H31.78a.97.97,0,0,0-.98.98V41.445a.97.97,0,0,0,.98.98H49.417v2.744H45.067c-.627,0-1.137.823-1.137,1.45s.51.549,1.137.549H60.822c.627,0,1.137.078,1.137-.549S61.449,45.208,60.822,45.208Zm-6.389,0H51.416V42.621h3.018Z" transform="translate(-18.12 0)" fill="#0a4273"/>
    <path id="Trazado_374" data-name="Trazado 374" d="M3.352,122.814V108H28.984v1.764a11.388,11.388,0,0,1,2,.862V106.98A.97.97,0,0,0,30,106H2.372a.97.97,0,0,0-.98.98v16.814a1,1,0,0,0,.314.745A1.6,1.6,0,0,0,1,125.793c0,.627.51.549,1.137.549H18.52a10.357,10.357,0,0,1-2.156-3.567H3.352Z" transform="translate(0 -58.009)" fill="#0a4273"/>
    <path id="Trazado_375" data-name="Trazado 375" d="M135.728,33.181a1.063,1.063,0,0,0-.549-.745l-1.372-.666a1.041,1.041,0,0,0-.9.039,21.748,21.748,0,0,0-3.057,2.156,9.066,9.066,0,0,0-4.978-1.489,9.171,9.171,0,1,0,9.171,9.171,9,9,0,0,0-1.215-4.586c1.529-1.881,2.665-3.018,2.665-3.018A1.122,1.122,0,0,0,135.728,33.181Zm-2.195.941a.485.485,0,0,1-.118.078c-1.489,1.058-3.371,3.527-5.566,7.094-1.685,2.783-2.9,5.252-2.979,5.37a.689.689,0,0,1-.157.2.445.445,0,0,1-.314.118.426.426,0,0,1-.353-.157l-4.938-5.409a.632.632,0,0,1-.118-.353.584.584,0,0,1,.157-.353l.784-.705a.483.483,0,0,1,.549-.078l3.371,1.8a29.813,29.813,0,0,1,5.37-5.526c1.685-1.411,3.175-2.508,3.606-2.783.039-.039.078-.039.118-.078a.5.5,0,0,1,.705.118A.462.462,0,0,1,133.533,34.122Z" transform="translate(-69.745 -12.822)" fill="#0a4273"/>
    <path id="Trazado_376" data-name="Trazado 376" d="M62.46,115.736l-1.372-.666a1.041,1.041,0,0,0-.9.039,22.914,22.914,0,0,0-3.88,2.861,7.968,7.968,0,0,0-4.155-1.137,8.152,8.152,0,1,0,8.152,8.152,8.037,8.037,0,0,0-.9-3.723,43.709,43.709,0,0,1,3.371-3.919.906.906,0,0,0,.274-.862A1.243,1.243,0,0,0,62.46,115.736Zm-1.646,1.685a.485.485,0,0,1-.118.078c-1.489,1.058-3.371,3.527-5.566,7.094-1.685,2.783-2.9,5.252-2.979,5.37a.688.688,0,0,1-.157.2.445.445,0,0,1-.314.118.426.426,0,0,1-.353-.157l-4.938-5.409a.632.632,0,0,1-.118-.353.584.584,0,0,1,.157-.353l.784-.705a.483.483,0,0,1,.549-.078l3.371,1.8A29.813,29.813,0,0,1,56.5,119.5c1.685-1.411,3.175-2.508,3.606-2.783.039-.039.078-.039.118-.078a.5.5,0,0,1,.705.118A.462.462,0,0,1,60.814,117.422Z" transform="translate(-26.147 -63.473)" fill="#0a4273"/>
    <path id="Trazado_377" data-name="Trazado 377" d="M128.644,118.4v1.333H123.9v-9.171h4.742v2.861a7.655,7.655,0,0,1,1.529-1.254,1.044,1.044,0,0,1,.47-.118v-2.508a.97.97,0,0,0-.98-.98h-1.92V103.58a.97.97,0,0,0-.98-.98H113.28a.97.97,0,0,0-.98.98v19.479a.97.97,0,0,0,.98.98h13.483a.97.97,0,0,0,.98-.98v-1.333h1.92a.97.97,0,0,0,.98-.98V115.3a8.582,8.582,0,0,0-1.293,2.469A.957.957,0,0,1,128.644,118.4Zm-2.9,3.645H114.26V104.56h11.484v4h-2.822a.97.97,0,0,0-.98.98v.823h0l.431.2a.967.967,0,0,1,.549.745,1.119,1.119,0,0,1-.314.9s-.274.274-.666.745v7.76a.97.97,0,0,0,.98.98h2.822Z" transform="translate(-67.677 -55.942)" fill="#0a4273"/>
    <path id="Trazado_378" data-name="Trazado 378" d="M151.942,128.75l-.431-.2a.335.335,0,0,0-.274,0,8.674,8.674,0,0,0-2.587,2.665l-.98-1.1a.237.237,0,0,0-.235-.118.557.557,0,0,0-.235.078l-.745.705a.351.351,0,0,0-.039.431l1.8,2.234a.339.339,0,0,0,.235.118h0l.666-.039a.3.3,0,0,0,.274-.2,10.557,10.557,0,0,1,2.587-4.037.242.242,0,0,0,.078-.274A.218.218,0,0,0,151.942,128.75Z" transform="translate(-88.388 -71.706)" fill="#0a4273"/>
    <path id="Trazado_379" data-name="Trazado 379" d="M128.62,124.76a.242.242,0,0,0,.078-.274.265.265,0,0,0-.157-.235l-.431-.2a.335.335,0,0,0-.274,0,8.674,8.674,0,0,0-2.587,2.665l-.98-1.1a.237.237,0,0,0-.235-.118.557.557,0,0,0-.235.078l-.745.705a.351.351,0,0,0-.039.431l1.8,2.234a.339.339,0,0,0,.235.118h0l.666-.039a.3.3,0,0,0,.274-.2A10.355,10.355,0,0,1,128.62,124.76Z" transform="translate(-74.16 -68.97)" fill="#0a4273"/>
  </g>
</svg>
