<svg xmlns="http://www.w3.org/2000/svg" width="62.149" height="65" viewBox="0 0 62.149 65">
  <g id="flow-3" transform="translate(-0.272 -1)">
    <path id="Trazado_266" data-name="Trazado 266" d="M13.776,111.3H6.549A1.047,1.047,0,0,0,5.5,112.349V127.7a1.047,1.047,0,0,0,1.049,1.049h7.228a1.047,1.047,0,0,0,1.049-1.049V112.349A1.024,1.024,0,0,0,13.776,111.3Zm-1.049,15.354H7.6V113.36h5.131Z" transform="translate(-3.27 -69.493)" fill="#0a4273"/>
    <path id="Trazado_267" data-name="Trazado 267" d="M45.176,83.5H37.949A1.047,1.047,0,0,0,36.9,84.549v25.766a1.047,1.047,0,0,0,1.049,1.049h7.228a1.047,1.047,0,0,0,1.049-1.049V84.549A1.072,1.072,0,0,0,45.176,83.5Zm-1.049,25.766H39V85.6h5.131Z" transform="translate(-23.034 -52.104)" fill="#0a4273"/>
    <path id="Trazado_268" data-name="Trazado 268" d="M76.576,52.2a1.047,1.047,0,0,0,1.049-1.049V37.449A1.047,1.047,0,0,0,76.576,36.4H69.349A1.047,1.047,0,0,0,68.3,37.449v43.4A1.047,1.047,0,0,0,69.349,81.9H71.9a1.047,1.047,0,0,0,1.049-1.049A1.024,1.024,0,0,0,71.9,79.8H70.4V38.5h5.131V51.155A1.047,1.047,0,0,0,76.576,52.2Z" transform="translate(-42.78 -22.643)" fill="#0a4273"/>
    <path id="Trazado_269" data-name="Trazado 269" d="M32.088,163.2H5.349A1.072,1.072,0,0,0,4.3,164.249,1.047,1.047,0,0,0,5.349,165.3H32.088a1.072,1.072,0,0,0,1.049-1.049A1.047,1.047,0,0,0,32.088,163.2Z" transform="translate(-2.519 -101.956)" fill="#0a4273"/>
    <path id="Trazado_270" data-name="Trazado 270" d="M11.405,29.162a4.843,4.843,0,0,0,4.831-4.831,4.929,4.929,0,0,0-1.685-3.67l6.516-10.523a4.929,4.929,0,0,0,2.1.487,4.784,4.784,0,0,0,4.681-3.708l5.842,1.049v.112a4.827,4.827,0,1,0,.262-1.573L27.958,5.457A4.794,4.794,0,0,0,23.164,1a4.821,4.821,0,0,0-3.333,8.314l-6.516,10.6a4.405,4.405,0,0,0-1.872-.375,4.843,4.843,0,0,0-4.831,4.831,4.98,4.98,0,0,0,.674,2.472L.545,32.383a.761.761,0,0,0-.112,1.049.723.723,0,0,0,.562.262.671.671,0,0,0,.487-.187l6.741-5.543A4.713,4.713,0,0,0,11.405,29.162ZM38.519,5.232A2.846,2.846,0,1,1,35.673,8.3l2.734.487a.742.742,0,1,0,.262-1.461l-2.734-.487A2.9,2.9,0,0,1,38.519,5.232ZM23.164,8.677a3.249,3.249,0,0,1-1.049-.187l1.423-2.284,2.4.412A2.9,2.9,0,0,1,23.164,8.677ZM20.318,5.831a2.855,2.855,0,0,1,5.617-.712L23.314,4.67a.735.735,0,0,0-.749.337l-1.61,2.621A2.848,2.848,0,0,1,20.318,5.831ZM14.289,24.369a2.845,2.845,0,0,1-2.846,2.846,2.787,2.787,0,0,1-1.648-.524l2.135-1.76a.374.374,0,0,0,.15-.187l1.461-2.359A3.018,3.018,0,0,1,14.289,24.369Zm-5.73,0a2.845,2.845,0,0,1,2.846-2.846,2.921,2.921,0,0,1,.824.112l-1.386,2.247L8.821,25.567A2.663,2.663,0,0,1,8.559,24.369Z" transform="translate(0)" fill="#0a4273"/>
    <path id="Trazado_271" data-name="Trazado 271" d="M110.507,27.9A13.122,13.122,0,0,0,97.4,41.007,12.7,12.7,0,0,0,98.561,46.4a.93.93,0,1,0,1.685-.786,11.107,11.107,0,0,1-.9-3.258l9.25-.6L105.864,45.8a.638.638,0,0,0,.15.861.6.6,0,0,0,.337.112.787.787,0,0,0,.524-.262l3.258-4.831h.187l5.917,4.794a.791.791,0,0,0,.374.15.617.617,0,0,0,.412-1.086l-5.955-4.831.112-10.935a11.27,11.27,0,0,1,10.673,11.272,11.033,11.033,0,0,1-1.011,4.644.945.945,0,0,0,.449,1.236,1.331,1.331,0,0,0,.375.075.9.9,0,0,0,.824-.524,12.823,12.823,0,0,0,1.161-5.393A13.146,13.146,0,0,0,110.507,27.9Zm-.6,1.872-.075,8.389L106.8,30.409A10.427,10.427,0,0,1,109.908,29.772Zm-4.269,1.086,3.333,8.464-7.265-5.28A10.873,10.873,0,0,1,105.639,30.859Zm-6.4,10.186a11.213,11.213,0,0,1,1.723-5.992l7.6,5.543-9.325.637Z" transform="translate(-61.232 -16.935)" fill="#0a4273"/>
    <path id="Trazado_272" data-name="Trazado 272" d="M111.563,81.7h-26.7a.847.847,0,0,0-.861.861v33.555a.847.847,0,0,0,.861.861h26.7a.847.847,0,0,0,.861-.861V82.561A.847.847,0,0,0,111.563,81.7Zm-.861,33.593H85.723V83.423H110.7Z" transform="translate(-52.85 -50.978)" fill="#0a4273"/>
    <path id="Trazado_273" data-name="Trazado 273" d="M98.549,100.2h16.59a.751.751,0,0,0,.749-.749V95.149a.751.751,0,0,0-.749-.749H98.549a.751.751,0,0,0-.749.749v4.344A.72.72,0,0,0,98.549,100.2ZM99.3,95.9h15.13v2.846H99.3Z" transform="translate(-61.482 -58.715)" fill="#0a4273"/>
    <path id="Trazado_274" data-name="Trazado 274" d="M102.108,118.4H99.374a.671.671,0,0,0-.674.674v2.734a.671.671,0,0,0,.674.674h2.734a.671.671,0,0,0,.674-.674v-2.734A.671.671,0,0,0,102.108,118.4Zm-.674,2.734h-1.386v-1.386h1.386Z" transform="translate(-61.868 -73.792)" fill="#0a4273"/>
    <path id="Trazado_275" data-name="Trazado 275" d="M119.908,118.4h-2.734a.671.671,0,0,0-.674.674v2.734a.671.671,0,0,0,.674.674h2.734a.671.671,0,0,0,.674-.674v-2.734A.671.671,0,0,0,119.908,118.4Zm-.674,2.734h-1.386v-1.386h1.386Z" transform="translate(-73.056 -73.792)" fill="#0a4273"/>
    <path id="Trazado_276" data-name="Trazado 276" d="M137.708,118.4h-2.734a.671.671,0,0,0-.674.674v2.734a.671.671,0,0,0,.674.674h2.734a.671.671,0,0,0,.674-.674v-2.734A.671.671,0,0,0,137.708,118.4Zm-.674,2.734h-1.386v-1.386h1.386Z" transform="translate(-84.313 -73.792)" fill="#0a4273"/>
    <path id="Trazado_277" data-name="Trazado 277" d="M102.108,135.3H99.374a.671.671,0,0,0-.674.674v2.734a.671.671,0,0,0,.674.674h2.734a.671.671,0,0,0,.674-.674v-2.734A.671.671,0,0,0,102.108,135.3Zm-.674,2.734h-1.386v-1.386h1.386Z" transform="translate(-61.868 -84.414)" fill="#0a4273"/>
    <path id="Trazado_278" data-name="Trazado 278" d="M119.908,135.3h-2.734a.671.671,0,0,0-.674.674v2.734a.671.671,0,0,0,.674.674h2.734a.671.671,0,0,0,.674-.674v-2.734A.671.671,0,0,0,119.908,135.3Zm-.674,2.734h-1.386v-1.386h1.386Z" transform="translate(-73.056 -84.414)" fill="#0a4273"/>
    <path id="Trazado_279" data-name="Trazado 279" d="M137.708,135.3h-2.734a.671.671,0,0,0-.674.674v2.734a.671.671,0,0,0,.674.674h2.734a.671.671,0,0,0,.674-.674v-2.734A.671.671,0,0,0,137.708,135.3Zm-.674,2.734h-1.386v-1.386h1.386Z" transform="translate(-84.313 -84.414)" fill="#0a4273"/>
    <path id="Trazado_280" data-name="Trazado 280" d="M102.108,152.2H99.374a.671.671,0,0,0-.674.674v2.734a.671.671,0,0,0,.674.674h2.734a.671.671,0,0,0,.674-.674v-2.734A.671.671,0,0,0,102.108,152.2Zm-.674,2.734h-1.386v-1.386h1.386Z" transform="translate(-61.868 -95.076)" fill="#0a4273"/>
    <path id="Trazado_281" data-name="Trazado 281" d="M119.908,152.2h-2.734a.671.671,0,0,0-.674.674v2.734a.671.671,0,0,0,.674.674h2.734a.671.671,0,0,0,.674-.674v-2.734A.671.671,0,0,0,119.908,152.2Zm-.674,2.734h-1.386v-1.386h1.386Z" transform="translate(-73.056 -95.076)" fill="#0a4273"/>
    <path id="Trazado_282" data-name="Trazado 282" d="M137.708,152.2h-2.734a.671.671,0,0,0-.674.674v2.734a.671.671,0,0,0,.674.674h2.734a.671.671,0,0,0,.674-.674v-2.734A.671.671,0,0,0,137.708,152.2Zm-.674,2.734h-1.386v-1.386h1.386Z" transform="translate(-84.313 -95.076)" fill="#0a4273"/>
  </g>
</svg>
