<svg xmlns="http://www.w3.org/2000/svg" width="65" height="61.984" viewBox="0 0 65 61.984">
  <g id="flow-4" transform="translate(-2.3 -10.9)">
    <path id="Trazado_283" data-name="Trazado 283" d="M25.336,67.105H4.4V12.958H43.742V46.167a1.029,1.029,0,1,0,2.058,0V11.929A1.048,1.048,0,0,0,44.771,10.9H3.329A1.048,1.048,0,0,0,2.3,11.929V68.134a1.048,1.048,0,0,0,1.029,1.029H25.3a1.048,1.048,0,0,0,1.029-1.029A1.014,1.014,0,0,0,25.336,67.105Z" fill="#0a4273"/>
    <path id="Trazado_284" data-name="Trazado 284" d="M29.749,29.529A1.048,1.048,0,0,0,28.72,28.5H16.529a1.029,1.029,0,0,0,0,2.058H28.681A1.056,1.056,0,0,0,29.749,29.529Z" transform="translate(-7.975 -10.634)" fill="#0a4273"/>
    <path id="Trazado_285" data-name="Trazado 285" d="M54.167,50.4H27.529a1.029,1.029,0,1,0,0,2.058H54.167A1.048,1.048,0,0,0,55.2,51.429,1.022,1.022,0,0,0,54.167,50.4Z" transform="translate(-14.621 -23.865)" fill="#0a4273"/>
    <path id="Trazado_286" data-name="Trazado 286" d="M17.717,50.4H16.529a1.029,1.029,0,1,0,0,2.058h1.187a1.048,1.048,0,0,0,1.029-1.029A1.022,1.022,0,0,0,17.717,50.4Z" transform="translate(-7.975 -23.865)" fill="#0a4273"/>
    <path id="Trazado_287" data-name="Trazado 287" d="M54.167,66.5H27.529a1.029,1.029,0,1,0,0,2.058H54.167A1.048,1.048,0,0,0,55.2,67.529,1.022,1.022,0,0,0,54.167,66.5Z" transform="translate(-14.621 -33.593)" fill="#0a4273"/>
    <path id="Trazado_288" data-name="Trazado 288" d="M17.717,66.5H16.529a1.029,1.029,0,1,0,0,2.058h1.187a1.048,1.048,0,0,0,1.029-1.029A1.022,1.022,0,0,0,17.717,66.5Z" transform="translate(-7.975 -33.593)" fill="#0a4273"/>
    <path id="Trazado_289" data-name="Trazado 289" d="M54.167,82.6H27.529a1.029,1.029,0,1,0,0,2.058H39.047c.237-.277.4-.515.515-.673.356-.435,2.454-1.742,3.4-1.108.792.515,1.742,1.148,2.652,1.781h8.55A1.048,1.048,0,0,0,55.2,83.629,1,1,0,0,0,54.167,82.6Z" transform="translate(-14.621 -43.32)" fill="#0a4273"/>
    <path id="Trazado_290" data-name="Trazado 290" d="M17.717,82.6H16.529a1.029,1.029,0,1,0,0,2.058h1.187a1.048,1.048,0,0,0,1.029-1.029A1.022,1.022,0,0,0,17.717,82.6Z" transform="translate(-7.975 -43.32)" fill="#0a4273"/>
    <path id="Trazado_291" data-name="Trazado 291" d="M90.419,98.7H87.49a1.021,1.021,0,0,0-.99.752,14.846,14.846,0,0,1,4.948.435v-.119A1.008,1.008,0,0,0,90.419,98.7Z" transform="translate(-50.873 -53.048)" fill="#0a4273"/>
    <path id="Trazado_292" data-name="Trazado 292" d="M35.564,99.235a1.051,1.051,0,0,0-.871-.435H27.529a1.029,1.029,0,0,0,0,2.058h6.848C34.812,100.3,35.168,99.75,35.564,99.235Z" transform="translate(-14.621 -53.108)" fill="#0a4273"/>
    <path id="Trazado_293" data-name="Trazado 293" d="M17.717,98.7H16.529a1.029,1.029,0,1,0,0,2.058h1.187a1.048,1.048,0,0,0,1.029-1.029A1.022,1.022,0,0,0,17.717,98.7Z" transform="translate(-7.975 -53.048)" fill="#0a4273"/>
    <path id="Trazado_294" data-name="Trazado 294" d="M34,132.029a1.048,1.048,0,0,0,1.029,1.029H36.81a.932.932,0,0,0,.831-.435L35.465,131h-.435A1,1,0,0,0,34,132.029Z" transform="translate(-19.153 -72.563)" fill="#0a4273"/>
    <path id="Trazado_295" data-name="Trazado 295" d="M88.347,101.34,79.005,88.476a1.854,1.854,0,0,0-1.148-.712,1.719,1.719,0,0,0-1.306.317l-4.116,3.008a1.854,1.854,0,0,0-.712,1.148,1.719,1.719,0,0,0,.317,1.306l.435.594a7.335,7.335,0,0,1-2.414.792,21.074,21.074,0,0,0-7.441.435c-.04-.04-.119-.079-.158-.119-2.375-1.5-6.016-.91-8.51-.317h-.04a1.511,1.511,0,0,1-.356-.356l.752-1.069a1.722,1.722,0,0,0-.4-2.414h0L49.794,88.08a1.679,1.679,0,0,0-1.306-.317,1.7,1.7,0,0,0-1.148.712L38,101.34a1.722,1.722,0,0,0,.4,2.414l4.116,3.008a1.859,1.859,0,0,0,1.029.317.674.674,0,0,0,.277-.04,1.7,1.7,0,0,0,1.148-.712l1.425-1.939.831.554c.277.633.831,1.821,1.267,2.573l-.119.119a2.635,2.635,0,0,0-.712,2.058,3.1,3.1,0,0,0,.831,1.86,2.358,2.358,0,0,0,.831.554,2.257,2.257,0,0,0-.04.515,2.7,2.7,0,0,0,.752,1.86,2.391,2.391,0,0,0,1.544.752,2.585,2.585,0,0,0,.752,1.623,2.511,2.511,0,0,0,1.86.792h.04a2.632,2.632,0,0,0,1.346-.356l.356.475a3.152,3.152,0,0,0,1.821.871h.317a2.486,2.486,0,0,0,1.583-.554,4.022,4.022,0,0,0,2.335,1.227h.356a3.591,3.591,0,0,0,2.414-.99,3.607,3.607,0,0,0,2.058,0,3.931,3.931,0,0,0,2.256-1.939,3.637,3.637,0,0,0,1.939-.4,3.514,3.514,0,0,0,1.544-1.662,3.4,3.4,0,0,0,1.86-.594,4.517,4.517,0,0,0,1.7-3.285l.079-.079c1.662-1.425,3.325-2.889,3.8-4.077a7.6,7.6,0,0,1,.792-.752l.594.792a1.854,1.854,0,0,0,1.148.712c.079,0,.2.04.277.04a1.962,1.962,0,0,0,1.029-.317l4.116-3.008a1.854,1.854,0,0,0,.712-1.148A2.093,2.093,0,0,0,88.347,101.34ZM43.541,104.9l-3.6-2.612,8.945-12.31,3.562,2.612ZM49,103.873a.8.8,0,0,0-.356-.435l-.99-.673,4.71-6.491c.792.752,1.187.752,1.425.752a4.168,4.168,0,0,0,.712-.119,15.635,15.635,0,0,1,5.423-.475c-1.148.554-2.414,1.267-3.6,1.9A25.477,25.477,0,0,1,53.2,99.915a2.177,2.177,0,0,0-1.623,2.256,2.432,2.432,0,0,0,1.108,1.662c.079.04.119.079.2.119a2.394,2.394,0,0,0-1.306.633l-1.465,1.425A13.355,13.355,0,0,1,49,103.873Zm1.029,6.214a.907.907,0,0,1-.237-.594c0-.158,0-.317.079-.356l3.087-3.048a.461.461,0,0,1,.277-.079.868.868,0,0,1,.673.277.551.551,0,0,1,0,.752l-3.127,3.048A.486.486,0,0,1,50.032,110.087Zm2.3,2.969a.508.508,0,0,1-.4.158h0a.7.7,0,0,1-.4-.158.508.508,0,0,1-.158-.4.7.7,0,0,1,.158-.4l.673-.673h0l3.087-3.048.04-.04.119-.119a.508.508,0,0,1,.4-.158h0a.7.7,0,0,1,.4.158h0a.508.508,0,0,1,.158.4.7.7,0,0,1-.158.4Zm3.641.99a2.561,2.561,0,0,0-.317.356l-1.029.99a.508.508,0,0,1-.4.158h0a.7.7,0,0,1-.4-.158.508.508,0,0,1-.158-.4.7.7,0,0,1,.158-.4l3.958-3.879h0a.508.508,0,0,1,.4-.158h0a.7.7,0,0,1,.4.158.574.574,0,0,1,0,.792l-.119.119-.04.04-2.454,2.375Zm4.829.119L58.344,116.5h0c-.079.079-.2.079-.356.079a1.04,1.04,0,0,1-.594-.277.553.553,0,0,1-.119-.594l2.612-2.533a.516.516,0,0,1,.752.04C60.877,113.451,60.956,114.006,60.8,114.164Zm12.508-2.1a1.439,1.439,0,0,1-1.108.2.968.968,0,0,0-1.227.712,1.807,1.807,0,0,1-1.187,1.346,2,2,0,0,1-.91,0,1.051,1.051,0,0,0-1.267.554,2.65,2.65,0,0,1-1.346,1.5,1.447,1.447,0,0,1-1.148-.119.986.986,0,0,0-1.306.2,2.023,2.023,0,0,1-1.544.831,1.825,1.825,0,0,1-1.029-.594l1.069-1.029h0a2.831,2.831,0,0,0-.158-3.879,2.265,2.265,0,0,0-1.306-.712,2.583,2.583,0,0,0-.752-1.7,2.391,2.391,0,0,0-1.544-.752A2.585,2.585,0,0,0,57.79,107a2.637,2.637,0,0,0-1.662-.792,2.5,2.5,0,0,0-.712-1.346h0a1.049,1.049,0,0,0-.237-.2,11.166,11.166,0,0,0,6.65-1.9,1.721,1.721,0,0,0,.277-.158,46.879,46.879,0,0,1,6.57.712l.831.792,4.591,6.214A2.663,2.663,0,0,1,73.306,112.066Zm6.214-8.114a4.9,4.9,0,0,0-1.425,1.623c-.237.673-1.86,2.1-2.81,2.929l-4.235-5.7a.546.546,0,0,1-.119-.158l-1.148-1.069a1.055,1.055,0,0,0-.554-.277,52.066,52.066,0,0,0-6.887-.752,2.642,2.642,0,0,0-1.148.158c-.119.079-.277.158-.475.277a9.737,9.737,0,0,1-5.581,1.623,2.778,2.778,0,0,1-1.623-.554.423.423,0,0,1,.2-.119,30.564,30.564,0,0,0,3.483-1.742,56.369,56.369,0,0,1,5.146-2.573,17.792,17.792,0,0,1,7.362-.633c1.069.2,2.889-.594,3.958-1.108l5.858,8.075Zm3.364.95-8.945-12.31,3.6-2.612,8.945,12.31Z" transform="translate(-21.371 -46.425)" fill="#0a4273"/>
  </g>
</svg>
